<?xml version="1.0" encoding="UTF-8"?>
<svg version="1.1" xmlns="http://www.w3.org/2000/svg" width="2560" height="612">
<path d="M0 0 C164.01 0 328.02 0 497 0 C495.45388471 4.63834588 494.17022857 7.69029548 491.68359375 11.7265625 C491.01086426 12.82581055 490.33813477 13.92505859 489.64501953 15.05761719 C488.90919277 16.24675289 488.17335254 17.43588025 487.4375 18.625 C486.66975065 19.87622317 485.90267301 21.12785872 485.13623047 22.37988281 C483.54616519 24.97595826 481.95324825 27.5702475 480.35791016 30.16308594 C476.76019183 36.01316892 473.1911843 41.88064624 469.625 47.75 C469.28161591 48.31440796 468.93823181 48.87881592 468.58444214 49.46032715 C464.35691245 56.41068301 460.16789168 63.38257208 456.0234375 70.3828125 C455.60389801 71.09123291 455.18435852 71.79965332 454.75210571 72.52954102 C452.72431929 75.95556323 450.70035486 79.38376712 448.68212891 82.81542969 C447.93396417 84.0827088 447.18575647 85.34996255 446.4375 86.6171875 C445.79683594 87.70628418 445.15617187 88.79538086 444.49609375 89.91748047 C443.06410121 92.35034373 441.54959229 94.6278604 439.901474 96.92530823 C433.27242296 106.2997513 430.40766215 115.44342789 427.81640625 126.54296875 C427.38810245 128.28757454 426.9573029 130.0315693 426.52415466 131.77497864 C425.40258431 136.31399166 424.31111873 140.85966889 423.22735596 145.40783691 C421.47707868 152.72548383 419.67587467 160.03084338 417.88294792 167.33812904 C417.26272695 169.88179311 416.65282056 172.42774462 416.0450592 174.97441101 C415.67017482 176.5261729 415.29521461 178.07791647 414.92016602 179.62963867 C414.7544812 180.33556656 414.58879639 181.04149445 414.41809082 181.76881409 C413.62883574 185.00827325 412.87417785 187.18873323 411 190 C411.60508911 179.41800938 413.24789572 168.99568845 414.78271484 158.51828003 C417.59903053 139.19712579 420.02465564 119.86286558 422 100.4375 C422.16731628 98.81722397 422.16731628 98.81722397 422.3380127 97.16421509 C422.64925928 94.12967707 422.95177405 91.0944362 423.25 88.05859375 C423.34230896 87.15062042 423.43461792 86.24264709 423.52972412 85.30715942 C423.72864098 83.20834208 423.8708299 81.10426169 424 79 C423.67 78.67 423.34 78.34 423 78 C422.29206299 78.47719482 421.58412598 78.95438965 420.85473633 79.44604492 C305.62666507 157 305.62666507 157 269 157 C269.01382689 158.62286014 269.01382689 158.62286014 269.02793312 160.27850533 C269.24984059 186.59282414 269.41421462 212.90702176 269.51812172 239.22207832 C269.56970515 251.94786946 269.64004113 264.67304285 269.75439453 277.3984375 C269.85400773 288.48880096 269.91856802 299.57871711 269.94088495 310.66951549 C269.95393254 316.54333351 269.98463265 322.41587179 270.05730057 328.28927994 C270.12513649 333.81688004 270.14612519 339.34267252 270.13107681 344.87064934 C270.13382993 346.90005122 270.15375062 348.92951299 270.19205475 350.95855522 C270.46774789 366.31469335 270.46774789 366.31469335 266.76774216 370.56313705 C263.59172065 372.54106574 260.79048802 374 257 374 C257 303.71 257 233.42 257 161 C254.36 161.33 251.72 161.66 249 162 C247.68 161.67 246.36 161.34 245 161 C244.505 266.435 244.505 266.435 244 374 C239.88052658 372.97013165 236.8213268 371.30546713 233.25 369.125 C232.59241699 368.72571289 231.93483398 368.32642578 231.25732422 367.91503906 C209.3301429 354.44615241 189.33074602 338.39804187 170.32421875 321.10546875 C168.83956066 319.76054319 167.34317157 318.42838175 165.83203125 317.11328125 C159.75608584 311.79029293 154.03213994 306.13908656 148.3125 300.4375 C147.50433838 299.63393066 146.69617676 298.83036133 145.86352539 298.00244141 C141.60318709 293.73115558 137.50012644 289.38487561 133.56616211 284.8112793 C131.31581903 282.2087391 128.9700462 279.70507963 126.625 277.1875 C121.50994773 271.6433473 116.71372462 265.89020796 112 260 C111.07759625 258.86916043 110.15437804 257.73898485 109.23046875 256.609375 C106.65771844 253.45495198 104.13780612 250.26204338 101.63085938 247.05517578 C99.9477558 244.93416292 98.21685313 242.85812813 96.484375 240.77734375 C95.32079017 239.31158142 94.15928671 237.84416411 93 236.375 C92.46020508 235.75101318 91.92041016 235.12702637 91.36425781 234.48413086 C87.30198461 229.1877089 86.16567974 223.84079577 85.04003906 217.41503906 C84.87099689 216.48879541 84.70195473 215.56255177 84.52779007 214.60824013 C84.00802039 211.7405846 83.5019387 208.87082573 83 206 C82.84990982 205.14841434 82.69981964 204.29682869 82.54518127 203.41943741 C81.51963789 197.58345692 80.52941606 191.74178854 79.546875 185.8984375 C79.23883038 184.0747373 78.93066119 182.25105814 78.62237549 180.42739868 C77.98573032 176.65822252 77.35067294 172.88878343 76.71679688 169.11914062 C75.90407948 164.2868421 75.08705284 159.45528307 74.26887131 154.62390709 C73.63573768 150.88224622 73.00491386 147.1401988 72.37479401 143.39802933 C72.07410413 141.61408715 71.77267297 139.83026976 71.47048187 138.04658127 C71.05184589 135.5736008 70.63634276 133.10011413 70.22167969 130.62646484 C70.09705353 129.89413132 69.97242737 129.16179779 69.84402466 128.40727234 C69.36987347 125.56217337 69 122.89065046 69 120 C68.04879272 119.65207397 68.04879272 119.65207397 67.07836914 119.29711914 C65 118 65 118 64.23217773 115.88842773 C64.07177002 115.01645752 63.9113623 114.1444873 63.74609375 113.24609375 C61.9275425 105.74105856 58.03507804 99.58108986 54.0625 93.0625 C53.28576336 91.76608907 52.51022462 90.46895972 51.73583984 89.17114258 C49.83919365 85.99859913 47.92871828 82.83468657 46.01287842 79.67370605 C44.62694851 77.38356023 43.25227772 75.08675667 41.87890625 72.7890625 C40.02514182 69.68929335 38.16504297 66.59346603 36.30078125 63.5 C31.13833977 54.91725648 26.0431405 46.29420469 20.93603516 37.6784668 C17.00616983 31.05038216 13.06810073 24.42730275 9.109375 17.81640625 C8.74173538 17.20133713 8.37409576 16.58626801 7.99531555 15.95256042 C6.03236692 12.67946503 4.01384254 9.45205729 1.9375 6.25 C-0 3 -0 3 0 0 Z " fill="#EBD7B4" transform="translate(0,105)"/>
<path d="M0 0 C-1.67862786 9.18827881 -3.73741761 18.25097648 -6 27.3125 C-6.2489502 28.31345703 -6.49790039 29.31441406 -6.75439453 30.34570312 C-7.89566889 34.86894636 -9.09013296 39.34582956 -10.5 43.79296875 C-11.71902713 47.76967772 -12.57154403 51.73896135 -13.34741211 55.82446289 C-14.93418218 63.9618133 -16.89996504 71.98222888 -18.94140625 80.015625 C-19.3136293 81.48911623 -19.68569123 82.96264816 -20.05760193 84.43621826 C-20.82905544 87.48889545 -21.60336766 90.54082964 -22.37963867 93.59228516 C-23.37361376 97.5010778 -24.35871341 101.41204911 -25.34159946 105.32364273 C-26.10364147 108.35121875 -26.87102169 111.37742231 -27.63996696 114.40325165 C-28.00579793 115.84608686 -28.36979614 117.28938808 -28.73190498 118.73316193 C-29.23573483 120.73925357 -29.74690488 122.74333404 -30.26000977 124.74707031 C-30.5485231 125.88541321 -30.83703644 127.0237561 -31.1342926 128.19659424 C-32 131 -32 131 -34 134 C-33.39491089 123.41800938 -31.75210428 112.99568845 -30.21728516 102.51828003 C-27.40096947 83.19712579 -24.97534436 63.86286558 -23 44.4375 C-22.83268372 42.81722397 -22.83268372 42.81722397 -22.6619873 41.16421509 C-22.35074072 38.12967707 -22.04822595 35.0944362 -21.75 32.05859375 C-21.65769104 31.15062042 -21.56538208 30.24264709 -21.47027588 29.30715942 C-21.27135902 27.20834208 -21.1291701 25.10426169 -21 23 C-21.33 22.67 -21.66 22.34 -22 22 C-22.70793701 22.47719482 -23.41587402 22.95438965 -24.14526367 23.44604492 C-139.37333493 101 -139.37333493 101 -176 101 C-175.99078207 102.08190676 -175.98156414 103.16381351 -175.97206688 104.27850533 C-175.75015941 130.59282414 -175.58578538 156.90702176 -175.48187828 183.22207832 C-175.43029485 195.94786946 -175.35995887 208.67304285 -175.24560547 221.3984375 C-175.14599227 232.48880096 -175.08143198 243.57871711 -175.05911505 254.66951549 C-175.04606746 260.54333351 -175.01536735 266.41587179 -174.94269943 272.28927994 C-174.87486351 277.81688004 -174.85387481 283.34267252 -174.86892319 288.87064934 C-174.86617007 290.90005122 -174.84624938 292.92951299 -174.80794525 294.95855522 C-174.53225211 310.31469335 -174.53225211 310.31469335 -178.23225784 314.56313705 C-181.40827935 316.54106574 -184.20951198 318 -188 318 C-188 247.71 -188 177.42 -188 105 C-190.64 105.33 -193.28 105.66 -196 106 C-197.32 105.67 -198.64 105.34 -200 105 C-200.495 210.435 -200.495 210.435 -201 318 C-205.11947342 316.97013165 -208.1786732 315.30546713 -211.75 313.125 C-212.40758301 312.72571289 -213.06516602 312.32642578 -213.74267578 311.91503906 C-235.6698571 298.44615241 -255.66925398 282.39804187 -274.67578125 265.10546875 C-276.16043934 263.76054319 -277.65682843 262.42838175 -279.16796875 261.11328125 C-285.24391416 255.79029293 -290.96786006 250.13908656 -296.6875 244.4375 C-297.49566162 243.63393066 -298.30382324 242.83036133 -299.13647461 242.00244141 C-303.39681291 237.73115558 -307.49987356 233.38487561 -311.43383789 228.8112793 C-313.68418097 226.2087391 -316.0299538 223.70507963 -318.375 221.1875 C-323.49005227 215.6433473 -328.28627538 209.89020796 -333 204 C-333.92240375 202.86916043 -334.84562196 201.73898485 -335.76953125 200.609375 C-338.34228156 197.45495198 -340.86219388 194.26204338 -343.36914062 191.05517578 C-345.0522442 188.93416292 -346.78314687 186.85812813 -348.515625 184.77734375 C-349.67920983 183.31158142 -350.84071329 181.84416411 -352 180.375 C-352.53979492 179.75101318 -353.07958984 179.12702637 -353.63574219 178.48413086 C-359.19375312 171.23755493 -359.99228957 162.44868174 -361.40008545 153.68994141 C-362.09530085 149.4138256 -362.83094728 145.14552818 -363.57080078 140.87695312 C-365.10973273 131.97609499 -366.61825683 123.0703085 -368.1184082 114.1628418 C-368.74698448 110.43062437 -369.37820218 106.69886985 -370.01196289 102.9675293 C-376.22828801 66.36594692 -376.22828801 66.36594692 -378.37524414 49.72143555 C-379.46167972 41.3291713 -380.8476813 32.97974425 -382.1875 24.625 C-382.46311401 22.89456681 -382.73850507 21.1640981 -383.01367188 19.43359375 C-383.67323601 15.28865229 -384.33573065 11.14418989 -385 7 C-380.52695715 8.44687455 -376.49827855 10.16205051 -372.3125 12.3125 C-321.13153099 38.22998076 -267.52302402 63.02382509 -212 78 C-211.14277344 78.24363281 -210.28554687 78.48726563 -209.40234375 78.73828125 C-197.53949188 81.81383544 -186.4744321 79.46714284 -175 76 C-174.07364746 75.72043457 -173.14729492 75.44086914 -172.19287109 75.15283203 C-142.21384813 65.934101 -113.43770229 53.13098447 -85 40 C-84.36247803 39.70563049 -83.72495605 39.41126099 -83.06811523 39.10797119 C-64.88193598 30.69886505 -46.82713032 22.01977584 -28.8125 13.25 C-27.9193811 12.81589813 -27.02626221 12.38179626 -26.1060791 11.93453979 C-23.55501765 10.69353786 -21.00572111 9.44898909 -18.45703125 8.203125 C-17.3279409 7.65408257 -17.3279409 7.65408257 -16.17604065 7.09394836 C-12.75780941 5.41779962 -9.42993649 3.68693269 -6.15893555 1.73730469 C-3 0 -3 0 0 0 Z " fill="#DDBE88" transform="translate(445,161)"/>
<path d="M0 0 C17.16 0 34.32 0 52 0 C52.01981934 7.02982178 52.03963867 14.05964355 52.06005859 21.30249023 C52.12500166 43.84993076 52.19954299 66.39733324 52.28005161 88.94472292 C52.292569 92.45281307 52.30500201 95.96090351 52.31738281 99.46899414 C52.31984881 100.16732933 52.3223148 100.86566453 52.32485552 101.5851614 C52.36447246 112.86098587 52.39726849 124.13682024 52.42749982 135.41267335 C52.45872256 147.00106249 52.49752137 158.5894083 52.54279006 170.17775112 C52.56795035 176.67901436 52.58976215 183.18024858 52.60334396 189.68154716 C52.61625982 195.81202669 52.63841514 201.94240618 52.66738319 208.0728302 C52.67638504 210.31197077 52.68213171 212.55112741 52.68421364 214.79028511 C51.56707059 238.93867729 51.56707059 238.93867729 60.125 260.4375 C65 266.91735537 65 266.91735537 65 269 C47.84 269 30.68 269 13 269 C13 266.03 13 263.06 13 260 C12.175 260.45890625 11.35 260.9178125 10.5 261.390625 C-10.3201414 272.45132512 -34.1822676 275.17557035 -56.94384766 268.37426758 C-77.46656502 261.74005919 -92.93758719 246.78104426 -102.99072266 228.01611328 C-116.81103255 200.40892434 -117.68356506 167.50053883 -108.8125 138.25 C-101.59907807 118.09548381 -88.51481173 102.25313699 -69.25585938 92.73339844 C-50.46335604 83.93822402 -25.50392177 81.11008748 -5.60546875 87.61010742 C-1.90360395 89.03716026 1.45292408 90.73836395 4.92578125 92.65234375 C6.07087158 93.28003662 7.21596191 93.90772949 8.39575195 94.55444336 C9.25515381 95.03147705 10.11455566 95.50851074 11 96 C11.3772672 80.66749975 11.71472498 65.3345002 12 50 C12.01651611 49.12927856 12.03303223 48.25855713 12.05004883 47.3614502 C12.14431452 42.26177685 12.20720588 37.16286638 12.25 32.0625 C12.27126953 30.82298584 12.29253906 29.58347168 12.31445312 28.30639648 C12.35255375 18.66761796 10.71193804 13.56524841 4.3125 6.125 C0 1.07655502 0 1.07655502 0 0 Z M-61.1875 132.125 C-74.45025161 147.91901236 -77.35747486 169.06635374 -76 189 C-73.8842203 205.9880387 -65.34602617 220.63569759 -52.0625 231.375 C-41.69836499 238.69207932 -29.43526081 240.47856677 -17.05859375 238.5390625 C-7.29562943 236.17817497 1.32873421 231.45339618 7 223 C13.18736547 212.63308964 14.14731365 201.67472736 14.203125 189.8671875 C14.20882507 188.91288849 14.21452515 187.95858948 14.22039795 186.97537231 C14.22979993 184.96341035 14.2363627 182.95143333 14.24023438 180.93945312 C14.24990546 177.90466539 14.28096115 174.87056581 14.3125 171.8359375 C14.39685715 156.64128191 14.25452251 142.24183307 4 130 C-5.80639688 120.40834174 -16.39501107 117.70564542 -29.64599609 117.68310547 C-42.31384954 117.8781437 -52.46607564 122.99062941 -61.1875 132.125 Z " fill="#96082A" transform="translate(2027,154)"/>
<path d="M0 0 C1.01513672 0.02900391 1.01513672 0.02900391 2.05078125 0.05859375 C22.84411904 0.66910626 44.13701623 3.56850812 63 13 C63 26.86 63 40.72 63 55 C57.72 52.36 52.44 49.72 47 47 C17.53720792 33.18931621 -15.21721755 30.30874476 -46.21875 41.4375 C-72.19383085 51.82753234 -92.36682315 70.29496081 -103.8125 95.9375 C-115.10496904 122.41837178 -116.28806223 152.27142761 -106.50390625 179.375 C-101.88531078 190.50761454 -96.17096786 200.06129019 -88 209 C-87.25234375 209.84046875 -86.5046875 210.6809375 -85.734375 211.546875 C-66.44714673 232.11140316 -38.25042913 241.47749242 -10.62402344 242.91845703 C27.51476019 244.10364067 56.31098897 231.51646083 87 210 C88.22288635 213.66865906 87.66083344 214.53327576 86.24926758 218.05053711 C85.63786674 219.59244972 85.63786674 219.59244972 85.01411438 221.16551208 C84.56215195 222.27491653 84.11018951 223.38432098 83.64453125 224.52734375 C83.18648605 225.66780655 82.72844086 226.80826935 82.2565155 227.98329163 C81.03386366 231.01786185 79.80190833 234.04846159 78.5670166 237.07806396 C77.32031834 240.15043596 76.09512269 243.23141531 74.86523438 246.31054688 C73.91793593 248.65415928 72.9694083 250.99727529 72.01953125 253.33984375 C71.57768997 254.44722397 71.13584869 255.55460419 70.68061829 256.69554138 C70.04557625 258.24218224 70.04557625 258.24218224 69.39770508 259.82006836 C69.03050858 260.72591171 68.66331207 261.63175507 68.2849884 262.56504822 C66.4797322 265.98586649 64.38840287 268.37438686 60.84033203 269.97314453 C60.07060059 270.19083496 59.30086914 270.40852539 58.5078125 270.6328125 C57.64518799 270.88071533 56.78256348 271.12861816 55.89379883 271.3840332 C54.98009521 271.62855225 54.0663916 271.87307129 53.125 272.125 C52.17971436 272.38434326 51.23442871 272.64368652 50.26049805 272.91088867 C42.88381802 274.87963716 35.61580119 276.33512847 28 277 C26.78054688 277.10957031 25.56109375 277.21914063 24.3046875 277.33203125 C1.83723181 279.05882352 -21.8865147 279.65279559 -44 275 C-44.78407227 274.83902832 -45.56814453 274.67805664 -46.37597656 274.51220703 C-64.3732278 270.67146522 -81.8894455 263.55942316 -97 253 C-98.02738281 252.28714844 -99.05476562 251.57429687 -100.11328125 250.83984375 C-115.01084314 239.94406894 -127.4368754 226.78155036 -137 211 C-137.37060547 210.39897461 -137.74121094 209.79794922 -138.12304688 209.17871094 C-157.10338349 177.89376188 -160.18028895 138.80661725 -152.0390625 103.71484375 C-143.65438501 70.70548902 -121.66943107 41.99447252 -93 24 C-92.40767578 23.62633301 -91.81535156 23.25266602 -91.20507812 22.86767578 C-64.23611363 6.13692929 -31.61686028 -1.26467441 0 0 Z " fill="#96082A" transform="translate(674,149)"/>
<path d="M0 0 C1.97650423 2.96475634 2.80644674 5.54719159 3.74853516 8.94970703 C20.4693747 69.32722472 54.50996353 128.38930194 95 176 C95.67579102 176.80099121 95.67579102 176.80099121 96.36523438 177.61816406 C105.11880401 187.99038443 113.96324038 198.38225441 123.85546875 207.6953125 C125 209 125 209 125 211 C125.58555664 211.25885986 126.17111328 211.51771973 126.77441406 211.78442383 C129.1688396 213.09221724 130.71093329 214.49736101 132.609375 216.44921875 C133.61871094 217.47499023 133.61871094 217.47499023 134.6484375 218.52148438 C135.34195313 219.23626953 136.03546875 219.95105469 136.75 220.6875 C141.97554762 226.04716339 147.30662393 231.1392312 153 236 C153.96421875 236.845625 154.9284375 237.69125 155.921875 238.5625 C165.57083468 246.87873044 175.7286535 254.47309233 186 262 C186.73798828 262.54333984 187.47597656 263.08667969 188.23632812 263.64648438 C198.61035251 271.25282976 209.31851721 278.1151247 220.48144531 284.50683594 C223.02253249 286.01335873 225.4712819 287.62050849 227.9296875 289.2578125 C235.41851328 294.33890862 235.41851328 294.33890862 244.06005859 295.81298828 C248.49632952 294.4922664 252.16043864 291.98873164 255.93359375 289.37060547 C257.99554382 288.00295569 260.07337487 286.86824897 262.28125 285.75390625 C286.2156346 273.63036383 308.78904623 257.34556828 330 241 C330.64404785 240.50467773 331.2880957 240.00935547 331.95166016 239.49902344 C336.00081796 236.37346663 340.0130042 233.20438217 344 230 C344.928125 229.25492188 345.85625 228.50984375 346.8125 227.7421875 C358.35556688 218.38022338 369.50694189 208.65937078 380.31640625 198.4609375 C382.72063251 196.19299087 385.14290958 193.94835991 387.58984375 191.7265625 C392.78429385 187.00733528 397.82720529 182.31121486 402.3359375 176.9140625 C404.24491546 174.71828973 406.28930561 172.71585571 408.375 170.6875 C413.34037144 165.79003108 417.67305614 160.46038804 422 155 C423.33305254 153.33310874 424.6663012 151.66637423 426 150 C426.66 150.33 427.32 150.66 428 151 C421.87054574 162.36807678 415.39775712 173.37342732 408.24462891 184.12792969 C407.13874144 185.79131633 406.04322504 187.46158766 404.94921875 189.1328125 C385.85993547 218.14219951 364.30346271 245.63141016 340.6875 271.09375 C338.94537167 272.97767947 337.21535838 274.87291381 335.5 276.78125 C329.77598083 283.13351518 323.84881027 289.25584885 317.8125 295.3125 C317.06411865 296.06547363 316.3157373 296.81844727 315.54467773 297.59423828 C311.41938538 301.70815115 307.20328343 305.65012105 302.78881836 309.4519043 C300.42972485 311.49353279 298.15660085 313.62246223 295.875 315.75 C290.06743021 321.04419345 283.95836688 325.87522989 277.72900391 330.66064453 C276.10119015 331.92161407 274.49321477 333.20807498 272.88671875 334.49609375 C266.47907387 339.58475709 259.85816576 344.22874581 253 348.6875 C252.18635986 349.22947021 251.37271973 349.77144043 250.53442383 350.32983398 C249.75993896 350.82298096 248.9854541 351.31612793 248.1875 351.82421875 C247.15689453 352.49070435 247.15689453 352.49070435 246.10546875 353.1706543 C243.33938 354.26021871 241.81525551 353.8460674 239 353 C236.57328934 351.83714103 234.26940468 350.64168275 231.9375 349.3125 C230.90290649 348.7251709 230.90290649 348.7251709 229.84741211 348.12597656 C209.52853704 336.3140936 190.71833972 321.38567315 173 306 C171.89785156 305.04867187 171.89785156 305.04867187 170.7734375 304.078125 C168.83813888 302.39726803 166.9190582 300.69936573 165 299 C164.32565918 298.41049561 163.65131836 297.82099121 162.95654297 297.21362305 C155.78125251 290.86542215 149.00119179 284.15398238 142.23999023 277.37036133 C140.30890453 275.43389451 138.37250118 273.50286044 136.43554688 271.57226562 C130.41247357 265.55272403 124.46927486 259.53531171 119 253 C118.12360824 251.98983229 117.24605726 250.98066878 116.3671875 249.97265625 C109.47033461 241.91912113 102.98670212 233.59853004 96.60986328 225.12890625 C95.07351995 223.09722384 93.52186244 221.07836008 91.96484375 219.0625 C48.81070541 162.88203447 -1.45966807 73.91481088 0 0 Z " fill="#96082A" transform="translate(8,254)"/>
<path d="M0 0 C1.38508823 1.15467169 2.76031245 2.32128714 4.125 3.5 C4.84816406 4.08007812 5.57132813 4.66015625 6.31640625 5.2578125 C24.26469818 20.17830562 34.19161076 42.05933324 36.8125 64.9453125 C39.00357432 89.86878294 31.85143988 113.95812297 15.875 133.25 C3.78414934 147.22388637 -11.31182132 156.88658696 -28.875 162.5 C-29.85726562 162.8196875 -30.83953125 163.139375 -31.8515625 163.46875 C-56.30445018 170.02188119 -81.81310575 165.58121011 -103.70800781 153.75292969 C-109.23571799 150.55687194 -114.08581929 146.71904015 -118.875 142.5 C-119.69226563 141.78199219 -120.50953125 141.06398438 -121.3515625 140.32421875 C-138.03933504 124.64000641 -148.07105287 102.37867968 -149.25 79.625 C-150.06682346 52.75513374 -142.02263352 29.55068863 -123.6574707 9.76513672 C-91.42565556 -23.45702651 -36.98147193 -28.07259048 0 0 Z M-93.78125 29.94140625 C-105.59302677 44.37557375 -111.10520079 61.84927731 -109.875 80.5 C-107.28508678 97.73434899 -100.56682898 113.21435558 -86.875 124.5 C-74.93911586 132.89267367 -63.41563145 135.82461239 -48.875 134.5 C-33.76358541 131.63463019 -21.33128536 122.81087785 -12.61328125 110.23828125 C-2.65161443 94.30458163 -0.02685145 76.8217819 -3.875 58.5 C-8.48580478 42.62232595 -17.69476811 29.20598996 -31.9375 20.5625 C-53.09670058 9.01864859 -76.99202186 11.90515211 -93.78125 29.94140625 Z " fill="#96082A" transform="translate(952.875,258.5)"/>
<path d="M0 0 C23.00583693 -0.65486912 45.62581504 7.23164113 63.15625 22.16015625 C63.88199219 22.74152344 64.60773438 23.32289063 65.35546875 23.921875 C83.50933668 39.0342572 94.00181087 61.86528315 96.15625 85.16015625 C97.42966894 110.01835516 90.87862648 133.79768774 74.36035156 152.6574707 C59.15756575 169.42279404 37.42930937 182.91593649 14.2722168 184.3371582 C-13.70621975 184.878565 -13.70621975 184.878565 -26.84375 180.16015625 C-27.90078125 179.78632813 -28.9578125 179.4125 -30.046875 179.02734375 C-54.31897062 169.62968621 -72.23761776 151.97618255 -83.09375 128.47265625 C-92.76933067 104.5216287 -92.40648924 78.96365505 -82.62890625 55.078125 C-72.96984925 33.02282472 -53.5322256 15.35639909 -31.40625 6.41015625 C-21.1752207 2.68532642 -10.84067451 0.61053249 0 0 Z M-36.84375 51.16015625 C-40.06358367 55.54544344 -42.50674756 60.26035404 -44.84375 65.16015625 C-45.27429687 66.0521875 -45.70484375 66.94421875 -46.1484375 67.86328125 C-53.12591524 84.46662244 -51.68596814 103.4032758 -45.31640625 119.875 C-39.0297764 133.89902044 -29.07818583 144.45839106 -14.84765625 150.4140625 C-1.98760412 154.93160835 10.61563283 154.43440019 23.15625 149.16015625 C38.31785107 141.68703754 48.22098573 129.38255176 54.09375 113.6484375 C59.30295811 96.89382103 57.87189514 78.87303942 50.15625 63.16015625 C41.41201104 48.26948136 29.73177155 38.52887462 13.21875 33.21484375 C10.84603484 32.68839757 8.57735732 32.35230762 6.15625 32.16015625 C5.43566406 32.09183594 4.71507812 32.02351563 3.97265625 31.953125 C-12.05126366 31.1819203 -26.66444726 39.23861283 -36.84375 51.16015625 Z " fill="#96082A" transform="translate(1582.84375,239.83984375)"/>
<path d="M0 0 C1.08467056 0.00031723 1.08467056 0.00031723 2.19125366 0.00064087 C23.79468891 0.06353427 44.64704079 3.30355501 61.1875 18.3671875 C77.197816 34.92330973 76.13096348 57.39793308 76.16866493 78.79656982 C76.1759158 82.06056871 76.19164251 85.32442454 76.21000671 88.58837891 C76.26209219 97.86033238 76.31044952 107.13220001 76.32592773 116.40429688 C76.33605017 122.09821652 76.36546941 127.79176299 76.40724754 133.48553467 C76.41948768 135.64147105 76.4246917 137.79746022 76.42244911 139.95343018 C76.4110827 154.43761925 77.35076053 165.97594954 85.046875 178.6328125 C86 180.375 86 180.375 86 182.375 C52.49821699 183.56888403 52.49821699 183.56888403 38 183.375 C37.67 180.735 37.34 178.095 37 175.375 C36.20078125 175.77332031 35.4015625 176.17164063 34.578125 176.58203125 C14.02409603 186.49717903 -8.3677085 188.47405945 -30.2578125 181.30859375 C-37.22156522 178.6103622 -43.18528627 175.04648188 -49 170.375 C-49.69867187 169.82585937 -50.39734375 169.27671875 -51.1171875 168.7109375 C-60.31924739 160.58304803 -65.74749136 148.0062361 -66.88671875 135.94140625 C-67.39740613 119.86355858 -65.25259959 104.0327841 -54.328125 91.44921875 C-38.7145701 76.4028229 -14.75474812 74.63161716 5.60742188 71.44775391 C21.51844441 69.9144848 21.51844441 69.9144848 34.70703125 62.37792969 C37.26786783 58.41095398 37.4146134 53.80534023 36.6328125 49.22265625 C34.6590647 42.87498585 30.58230546 39.62040383 25.10546875 36.1875 C10.45853082 28.56997205 -10.05117165 30.53660559 -25.40185547 35.00317383 C-31.85280941 37.10266012 -37.0100807 39.81278807 -42 44.375 C-43.45718678 45.66796001 -44.91552355 46.9596251 -46.375 48.25 C-47.02210938 48.84554687 -47.66921875 49.44109375 -48.3359375 50.0546875 C-50 51.375 -50 51.375 -52 51.375 C-52.24795102 46.0734258 -52.42896602 40.77524594 -52.54931641 35.46923828 C-52.5994898 33.66655695 -52.66765232 31.86428035 -52.75439453 30.06298828 C-53.45507389 15.13439621 -53.45507389 15.13439621 -49.97119141 10.921875 C-47.34812543 9.30981856 -44.93123847 8.29736449 -42 7.375 C-40.80632813 6.84390625 -39.61265625 6.3128125 -38.3828125 5.765625 C-37.30773438 5.38921875 -36.23265625 5.0128125 -35.125 4.625 C-34.05507812 4.23828125 -32.98515625 3.8515625 -31.8828125 3.453125 C-21.45304787 0.31629 -10.80905428 -0.02923665 0 0 Z M34.00390625 96.29296875 C33.14780762 96.49269287 32.29170898 96.69241699 31.40966797 96.89819336 C30.47010254 97.11741455 29.53053711 97.33663574 28.5625 97.5625 C20.99145275 99.32798827 13.41723145 100.86411196 5.76049805 102.20947266 C-11.80712925 104.96345927 -11.80712925 104.96345927 -25.625 115.375 C-29.93425628 122.10504437 -30.87788246 128.47405789 -30 136.375 C-27.93708936 143.86937155 -22.34221622 148.7505836 -15.8671875 152.6640625 C-6.45079539 157.3553833 4.02860911 157.24666282 14 154.375 C24.42303001 150.20803434 33.57931084 145.14522551 38.19287109 134.41601562 C40.04810489 127.42606032 39.39839848 119.98812634 39.25 112.8125 C39.22990488 111.11916174 39.21165943 109.42580047 39.1953125 107.73242188 C39.15155338 103.61270628 39.0826939 99.49411049 39 95.375 C37.28868001 95.375 35.66406894 95.90023635 34.00390625 96.29296875 Z " fill="#96082A" transform="translate(2394,239.625)"/>
<path d="M0 0 C11.62224001 11.18913645 19.29606102 26.90354271 20.01145554 43.09942055 C20.05503604 45.63672565 20.06881928 48.17252566 20.07177734 50.71020508 C20.07685806 51.67052139 20.08193878 52.63083771 20.08717346 53.62025452 C20.09783516 55.69635433 20.10647163 57.77246533 20.11329269 59.84858131 C20.12514205 63.14103191 20.14460992 66.43335487 20.16641235 69.72575378 C20.22782824 79.08380863 20.28203347 88.44184857 20.31542969 97.80004883 C20.33643638 103.53353248 20.37178413 109.26677971 20.41618729 115.00012779 C20.43029535 117.17725522 20.43905792 119.35442442 20.44224167 121.53159523 C20.44717982 124.58487131 20.47041164 127.63752534 20.49755859 130.69067383 C20.49455246 131.57879761 20.49154633 132.46692139 20.4884491 133.38195801 C20.60740319 142.44368966 22.47079548 150.10231272 28.6015625 156.89453125 C32.9140625 161.73663651 32.9140625 161.73663651 32.9140625 163.89453125 C12.1240625 163.89453125 -8.6659375 163.89453125 -30.0859375 163.89453125 C-28.33642099 159.52073999 -26.95172574 157.21991424 -24.0234375 153.70703125 C-19.87321587 148.79296617 -19.87321587 148.79296617 -18.95222473 142.6836853 C-18.94795975 141.80059692 -18.94369476 140.91750854 -18.93930054 140.00765991 C-18.93975372 139.03624054 -18.94020691 138.06482117 -18.94067383 137.06396484 C-18.93731522 136.04264465 -18.9339566 135.02132446 -18.93049622 133.96905518 C-18.92096221 130.57701414 -18.91904156 127.18502237 -18.91796875 123.79296875 C-18.91475674 121.43844584 -18.91139271 119.08392312 -18.90788269 116.72940063 C-18.9018845 111.78460223 -18.90004338 106.83982132 -18.90063477 101.89501953 C-18.90073617 95.56663634 -18.88710958 89.2383659 -18.86986256 82.91000938 C-18.858726 78.04232267 -18.85671611 73.17466302 -18.85724449 68.30696487 C-18.85606589 65.97464231 -18.85165084 63.64231902 -18.84391212 61.310009 C-18.83408355 58.04041499 -18.83700224 54.77106299 -18.84301758 51.50146484 C-18.83739807 50.54219086 -18.83177856 49.58291687 -18.82598877 48.59457397 C-18.87197773 38.72676719 -20.85432547 30.69984486 -27.58203125 23.234375 C-36.82561602 14.56712885 -49.51582041 11.35267493 -61.890625 11.57421875 C-73.70481627 12.75852643 -82.58797731 17.40945428 -90.25390625 26.3359375 C-96.80842354 35.48990088 -97.23792529 46.54979223 -97.23120117 57.42089844 C-97.23455978 58.2206308 -97.2379184 59.02036316 -97.24137878 59.84432983 C-97.25079379 62.46003825 -97.25282715 65.075682 -97.25390625 67.69140625 C-97.25712559 69.53070094 -97.26049015 71.36999538 -97.26399231 73.20928955 C-97.26996012 77.05554802 -97.27183465 80.9017841 -97.27124023 84.74804688 C-97.27113879 89.64422886 -97.28478308 94.54026525 -97.30201244 99.43641281 C-97.31320445 103.23371015 -97.31515724 107.03097309 -97.31463051 110.82828522 C-97.3158001 112.63175202 -97.32016357 114.43522003 -97.32796288 116.23867035 C-97.55349972 135.74742241 -97.55349972 135.74742241 -91.4609375 154.01953125 C-88.0859375 160.58203125 -88.0859375 160.58203125 -88.0859375 163.89453125 C-107.2259375 163.89453125 -126.3659375 163.89453125 -146.0859375 163.89453125 C-144.57377489 160.11412472 -143.12581765 157.12146191 -141.0234375 153.70703125 C-138.27327549 149.22204821 -136.96179163 146.80667515 -136.92530823 141.50489807 C-136.9152626 140.36003937 -136.90521698 139.21518066 -136.89486694 138.03562927 C-136.88903595 136.77291702 -136.88320496 135.51020477 -136.87719727 134.20922852 C-136.86765897 132.87031814 -136.85776782 131.53141024 -136.84754944 130.19250488 C-136.81611065 125.78201232 -136.79586676 121.37150077 -136.77734375 116.9609375 C-136.77404643 116.20847205 -136.77074911 115.4560066 -136.76735187 114.68073916 C-136.7365273 107.56872718 -136.70984234 100.45671081 -136.69293308 93.34465122 C-136.67113065 84.28251724 -136.62941432 75.22098375 -136.55949551 66.15908962 C-136.51191332 59.7715479 -136.487953 53.38416593 -136.4807362 46.99645275 C-136.47582388 43.19217986 -136.46117785 39.38858261 -136.4209919 35.58450508 C-136.26923105 20.53903531 -136.19599866 6.41942777 -141.79527283 -7.78797913 C-143.0859375 -11.10546875 -143.0859375 -11.10546875 -143.0859375 -14.10546875 C-128.2359375 -14.10546875 -113.3859375 -14.10546875 -98.0859375 -14.10546875 C-97.5909375 -10.64046875 -97.5909375 -10.64046875 -97.0859375 -7.10546875 C-96.37050781 -7.564375 -95.65507813 -8.02328125 -94.91796875 -8.49609375 C-65.48586676 -26.61987195 -25.67059589 -23.41934747 0 0 Z " fill="#96082A" transform="translate(1193.0859375,263.10546875)"/>
<path d="M0 0 C1.83331298 0.00252214 3.66662596 0.00503466 5.49993896 0.00753784 C31.67125188 0.05532424 57.65663203 0.36985499 83.6875 3.3125 C85.23655029 3.48359283 85.23655029 3.48359283 86.81689453 3.65814209 C117.95756225 7.10265023 148.93937089 11.26713755 179.6875 17.3125 C180.48506714 17.46912109 181.28263428 17.62574219 182.10437012 17.78710938 C221.93906561 25.64547889 260.79443339 35.67152461 299.0625 49.3125 C300.07820068 49.67400146 301.09390137 50.03550293 302.14038086 50.40795898 C306.59486741 52.03390634 310.73993455 53.62479586 314.6875 56.3125 C311.58536317 57.86356842 309.20442881 56.75679917 305.84765625 56.0546875 C304.3972228 55.75787344 302.94669754 55.46150778 301.49609375 55.16552734 C300.72507324 55.00606628 299.95405273 54.84660522 299.15966797 54.68231201 C253.02918647 45.20967236 205.85687494 40.5029394 158.83535767 38.41223145 C156.48428065 38.30306392 154.13427098 38.17779321 151.78393555 38.05371094 C130.16316097 36.98397477 108.51667854 37.06674551 86.875 37.0625 C85.84171947 37.06205814 84.80843895 37.06161629 83.74384689 37.06116104 C52.31696383 37.05412597 21.05823181 37.3974278 -10.27539062 40.05603027 C-13.49679395 40.32806276 -16.71898727 40.58892208 -19.94140625 40.84863281 C-70.18078978 44.93697565 -120.01733966 51.40566099 -169.36572266 61.7902832 C-172.3125 62.3125 -172.3125 62.3125 -176.3125 62.3125 C-176.3125 48.4525 -176.3125 34.5925 -176.3125 20.3125 C-147.20650178 13.15933095 -118.26915443 7.5568938 -88.5 4.0625 C-87.22970947 3.91135742 -85.95941895 3.76021484 -84.65063477 3.60449219 C-56.45878379 0.49332821 -28.32891257 -0.06296388 0 0 Z " fill="#96082A" transform="translate(177.3125,-0.3125)"/>
<path d="M0 0 C0.69954803 0.00182281 1.39909607 0.00364563 2.11984253 0.00552368 C42.24355097 0.18105097 42.24355097 0.18105097 51.375 9.3125 C51.46371273 12.34227804 51.4901935 15.34917022 51.47265625 18.37890625 C51.47053383 19.74184059 51.47053383 19.74184059 51.46836853 21.13230896 C51.46275193 24.04657221 51.45019665 26.96075981 51.4375 29.875 C51.43248714 31.84570202 51.42792386 33.81640524 51.42382812 35.78710938 C51.41277711 40.62893559 51.39550138 45.47070495 51.375 50.3125 C47.72658248 48.56104475 44.64881253 46.38715497 41.375 44 C27.18796978 34.02620869 8.82769385 28.82798001 -8.54736328 31.62158203 C-26.04067682 34.93410065 -39.79292151 42.87468356 -50.5625 57.1875 C-59.97730539 71.70007807 -62.35965338 88.6686495 -59.625 105.5 C-56.17117089 121.29122797 -47.8187623 135.07007267 -34.25 144.1875 C-13.75851681 156.18883215 6.79812812 155.66069269 29.17089844 149.92480469 C40.11939073 146.88328733 48.63023421 141.37458006 57.48828125 134.5078125 C60.375 132.3125 60.375 132.3125 61.375 132.3125 C60.77085293 141.73143108 59.7828151 151.04223933 58.375 160.375 C58.21644531 161.66599609 58.05789063 162.95699219 57.89453125 164.28710938 C56.49254363 173.31534512 56.49254363 173.31534512 53.49169922 175.99291992 C51.12320607 177.10262091 48.92731576 177.75167156 46.375 178.3125 C45.63540039 178.52189209 44.89580078 178.73128418 44.13378906 178.94702148 C41.93354322 179.54617366 39.73217223 180.03512758 37.5 180.5 C36.77425781 180.66435547 36.04851562 180.82871094 35.30078125 180.99804688 C4.45286432 187.67005693 -32.21361927 185.63969679 -59.48266602 168.91357422 C-80.15460306 155.51988723 -93.88506118 135.57185233 -99.08203125 111.4453125 C-103.42805759 86.3696785 -99.84904566 60.78649117 -85.1015625 39.62890625 C-69.8777961 18.80118747 -47.92740712 5.57183849 -22.609375 1.19921875 C-15.07672857 0.10222088 -7.60013097 -0.041232 0 0 Z " fill="#96082A" transform="translate(1375.625,240.6875)"/>
<path d="M0 0 C3.01963248 3.01963248 2.757755 6.73428281 3.25 10.8125 C4.282121 18.44852279 5.80832357 25.78135032 7.9375 33.1875 C8.17823242 34.03481689 8.41896484 34.88213379 8.66699219 35.75512695 C10.15532184 40.765145 11.99037092 45.45920779 14.23266602 50.1809082 C15 52 15 52 15 54 C25.55947998 45.51413391 34.52542296 35.05781907 42.953125 24.5078125 C44.91219165 22.10758199 46.95954266 19.83662828 49.0625 17.5625 C53.67060979 12.46298212 57.32027492 6.7838232 61 1 C62.22953838 4.68861515 61.62296501 5.69449815 60.26953125 9.26953125 C59.68582764 10.83973022 59.68582764 10.83973022 59.09033203 12.44165039 C58.45780518 14.11022095 58.45780518 14.11022095 57.8125 15.8125 C52.54792903 30.08513444 48.56989593 44.0089404 46 59 C69.69812823 45.77616367 91.63269049 30.72388359 113 14 C113.66 14.33 114.32 14.66 115 15 C114.26136719 15.70382813 113.52273438 16.40765625 112.76171875 17.1328125 C105.68468697 23.97919942 99.47323985 31.15211073 93.53173828 38.99316406 C91.81937092 41.23665461 90.08185021 43.45913763 88.33984375 45.6796875 C87.71319824 46.47938965 87.08655273 47.2790918 86.44091797 48.10302734 C85.21787089 49.6637079 83.99426658 51.22395197 82.77001953 52.78369141 C82.20782715 53.50476074 81.64563477 54.22583008 81.06640625 54.96875 C80.57084229 55.60232422 80.07527832 56.23589844 79.56469727 56.88867188 C77.60879281 59.52787639 75.80546686 62.25633387 74 65 C75.093125 64.6690332 76.18625 64.33806641 77.3125 63.99707031 C78.87499512 63.52407242 80.4374956 63.05109225 82 62.578125 C82.84678314 62.32179794 83.69356628 62.06547089 84.56600952 61.80137634 C89.31645031 60.36370971 94.06730809 58.92743945 98.81884766 57.4934082 C100.80892197 56.89274984 102.79899355 56.29208241 104.7890625 55.69140625 C105.7960318 55.38749466 106.8030011 55.08358307 107.84048462 54.77046204 C113.81581955 52.965779 119.78814593 51.15157634 125.75775146 49.32803345 C129.42162927 48.20978255 133.0871269 47.0969075 136.75292969 45.98498535 C138.49554365 45.45498084 140.23741385 44.92252448 141.97851562 44.38757324 C144.4082795 43.64136545 146.84049407 42.90373212 149.2734375 42.16796875 C149.98615814 41.94672836 150.69887878 41.72548798 151.43319702 41.49754333 C155.05134911 40.41321854 158.21755167 39.74591396 162 40 C159.7618354 42.46545731 157.58572417 43.89991533 154.6171875 45.390625 C153.71484375 45.8448584 152.8125 46.2990918 151.8828125 46.76708984 C150.89023437 47.2564502 149.89765625 47.74581055 148.875 48.25 C147.823125 48.77158691 146.77125 49.29317383 145.6875 49.83056641 C131.98207649 56.56260397 118.06393667 62.83276324 104.12078857 69.05352783 C102.02010649 69.99102681 99.92041084 70.93070849 97.82080078 71.87060547 C40.71315231 97.40057858 2.4549353 111.74814735 -57.82473755 88.80308533 C-101.35292706 72.10417413 -144.35781448 52.9891483 -186 32 C-185.89977539 32.59833145 -185.79955078 33.1966629 -185.69628906 33.81312561 C-184.65140486 40.05781178 -183.61445175 46.30377852 -182.58203125 52.55053711 C-182.19603175 54.87964904 -181.8080319 57.2084304 -181.41796875 59.53686523 C-180.85667285 62.88960593 -180.30265328 66.24348148 -179.75 69.59765625 C-179.48751465 71.15118553 -179.48751465 71.15118553 -179.21972656 72.73609924 C-178.37652265 77.89793972 -177.79475661 82.76950054 -178 88 C-179.87719727 87.49487305 -179.87719727 87.49487305 -182 86 C-182.87036883 83.29884874 -183.46595033 80.85505594 -183.96484375 78.08203125 C-184.20281174 76.87975891 -184.20281174 76.87975891 -184.44558716 75.65319824 C-184.95891998 73.04246406 -185.44833977 70.42786082 -185.9375 67.8125 C-186.28330353 66.02789479 -186.63088164 64.24363253 -186.98022461 62.4597168 C-187.50171372 59.79598529 -188.022068 57.13210434 -188.5358429 54.46687317 C-190.08401349 46.4533089 -191.83476583 38.49428061 -193.71655273 30.55200195 C-193.99801147 29.31389771 -193.99801147 29.31389771 -194.28515625 28.05078125 C-194.53084351 27.00917847 -194.53084351 27.00917847 -194.78149414 25.9465332 C-195.03117181 23.72230963 -194.5859677 22.14276915 -194 20 C-193.1389994 20.38566132 -193.1389994 20.38566132 -192.26060486 20.77911377 C-177.54897351 27.3410644 -162.70735571 33.26974558 -147.5625 38.75 C-145.44001291 39.52318703 -143.31761866 40.29662898 -141.1953125 41.0703125 C-127.32209004 46.11712104 -113.42287646 51.09190135 -99.5 56 C-98.66647003 56.29531616 -97.83294006 56.59063232 -96.97415161 56.89489746 C-94.6201461 57.72732108 -92.26369947 58.55238794 -89.90625 59.375 C-89.23335434 59.6137384 -88.56045868 59.85247681 -87.86717224 60.09844971 C-82.98402998 61.78773564 -78.06060485 62.96676121 -73 64 C-82.91730208 49.47104051 -94.31218609 36.61198938 -106.44384766 23.8972168 C-110.43807798 19.70615906 -114.26955075 15.42810668 -118 11 C-114.86419749 12.50853115 -112.46735796 14.17734659 -109.8125 16.4375 C-102.62096545 22.2617036 -94.81895492 27.07513194 -87 32 C-86.07251953 32.58765137 -85.14503906 33.17530273 -84.18945312 33.78076172 C-70.9614197 42.15866194 -57.61981153 50.27461162 -44 58 C-46.5678129 41.31965442 -50.83394275 26.03885899 -57.49682617 10.51049805 C-57.83560791 9.70523682 -58.17438965 8.89997559 -58.5234375 8.0703125 C-58.83200684 7.35633301 -59.14057617 6.64235352 -59.45849609 5.90673828 C-60 4 -60 4 -59 1 C-58.32517578 2.07314453 -58.32517578 2.07314453 -57.63671875 3.16796875 C-49.91535835 15.12911422 -40.56843239 25.493486 -31 36 C-29.43606801 37.72787162 -27.87356479 39.45703753 -26.3125 41.1875 C-25.57386719 42.00476563 -24.83523437 42.82203125 -24.07421875 43.6640625 C-22.21087594 45.76251636 -20.41261409 47.89970764 -18.625 50.0625 C-16.27169979 53.18536625 -16.27169979 53.18536625 -13 54 C-12.84144531 53.45214844 -12.68289062 52.90429688 -12.51953125 52.33984375 C-10.975248 47.09269346 -9.28799338 41.9195156 -7.5 36.75 C-3.43829213 24.75677999 -1.49215613 12.53411145 0 0 Z " fill="#FEFDFD" transform="translate(247,137)"/>
<path d="M0 0 C-1.67862786 9.18827881 -3.73741761 18.25097648 -6 27.3125 C-6.2489502 28.31345703 -6.49790039 29.31441406 -6.75439453 30.34570312 C-7.89566889 34.86894636 -9.09013296 39.34582956 -10.5 43.79296875 C-11.71902713 47.76967772 -12.57154403 51.73896135 -13.34741211 55.82446289 C-14.93418218 63.9618133 -16.89996504 71.98222888 -18.94140625 80.015625 C-19.3136293 81.48911623 -19.68569123 82.96264816 -20.05760193 84.43621826 C-20.82905544 87.48889545 -21.60336766 90.54082964 -22.37963867 93.59228516 C-23.37361376 97.5010778 -24.35871341 101.41204911 -25.34159946 105.32364273 C-26.10364147 108.35121875 -26.87102169 111.37742231 -27.63996696 114.40325165 C-28.00579793 115.84608686 -28.36979614 117.28938808 -28.73190498 118.73316193 C-29.23573483 120.73925357 -29.74690488 122.74333404 -30.26000977 124.74707031 C-30.5485231 125.88541321 -30.83703644 127.0237561 -31.1342926 128.19659424 C-32 131 -32 131 -34 134 C-33.39491089 123.41800938 -31.75210428 112.99568845 -30.21728516 102.51828003 C-27.40096947 83.19712579 -24.97534436 63.86286558 -23 44.4375 C-22.83268372 42.81722397 -22.83268372 42.81722397 -22.6619873 41.16421509 C-22.35074072 38.12967707 -22.04822595 35.0944362 -21.75 32.05859375 C-21.65769104 31.15062042 -21.56538208 30.24264709 -21.47027588 29.30715942 C-21.27135902 27.20834208 -21.1291701 25.10426169 -21 23 C-21.33 22.67 -21.66 22.34 -22 22 C-22.70793701 22.47719482 -23.41587402 22.95438965 -24.14526367 23.44604492 C-139.37333493 101 -139.37333493 101 -176 101 C-175.99078207 102.08190676 -175.98156414 103.16381351 -175.97206688 104.27850533 C-175.75015941 130.59282414 -175.58578538 156.90702176 -175.48187828 183.22207832 C-175.43029485 195.94786946 -175.35995887 208.67304285 -175.24560547 221.3984375 C-175.14599227 232.48880096 -175.08143198 243.57871711 -175.05911505 254.66951549 C-175.04606746 260.54333351 -175.01536735 266.41587179 -174.94269943 272.28927994 C-174.87486351 277.81688004 -174.85387481 283.34267252 -174.86892319 288.87064934 C-174.86617007 290.90005122 -174.84624938 292.92951299 -174.80794525 294.95855522 C-174.53225211 310.31469335 -174.53225211 310.31469335 -178.23225784 314.56313705 C-181.40827935 316.54106574 -184.20951198 318 -188 318 C-188 247.71 -188 177.42 -188 105 C-190.64 105.33 -193.28 105.66 -196 106 C-198.73735364 105.43640648 -201.13141253 104.81903851 -203.75 103.9296875 C-204.83420227 103.58148956 -204.83420227 103.58148956 -205.94030762 103.22625732 C-208.30007139 102.46097099 -210.65007117 101.66993371 -213 100.875 C-213.81412354 100.60467957 -214.62824707 100.33435913 -215.46704102 100.05584717 C-242.58431147 91.04738679 -268.49586839 79.84669722 -294 67 C-294.96470215 66.51821289 -295.9294043 66.03642578 -296.92333984 65.54003906 C-327.60904621 50.15624249 -356.55657315 30.88890346 -383 9 C-382.34 8.67 -381.68 8.34 -381 8 C-378.82463265 8.94318847 -376.77963665 9.95545963 -374.6875 11.0625 C-373.21846193 11.81578288 -371.74831862 12.5669125 -370.27734375 13.31640625 C-369.44444824 13.74195801 -368.61155273 14.16750977 -367.75341797 14.60595703 C-318.10037308 39.74506736 -265.83906321 63.47803831 -212 78 C-211.14277344 78.24363281 -210.28554687 78.48726563 -209.40234375 78.73828125 C-197.53949188 81.81383544 -186.4744321 79.46714284 -175 76 C-174.07364746 75.72043457 -173.14729492 75.44086914 -172.19287109 75.15283203 C-142.21384813 65.934101 -113.43770229 53.13098447 -85 40 C-84.36247803 39.70563049 -83.72495605 39.41126099 -83.06811523 39.10797119 C-64.88193598 30.69886505 -46.82713032 22.01977584 -28.8125 13.25 C-27.9193811 12.81589813 -27.02626221 12.38179626 -26.1060791 11.93453979 C-23.55501765 10.69353786 -21.00572111 9.44898909 -18.45703125 8.203125 C-17.3279409 7.65408257 -17.3279409 7.65408257 -16.17604065 7.09394836 C-12.75780941 5.41779962 -9.42993649 3.68693269 -6.15893555 1.73730469 C-3 0 -3 0 0 0 Z " fill="#970B2C" transform="translate(445,161)"/>
<path d="M0 0 C1.24265625 -0.01417969 2.4853125 -0.02835938 3.765625 -0.04296875 C7.75 0.1875 7.75 0.1875 16.75 2.1875 C16.75 14.3975 16.75 26.6075 16.75 39.1875 C7.918 38.0835 7.918 38.0835 4.6875 37.125 C-3.43938003 35.06178046 -9.76040326 36.74909423 -17.25 40.1875 C-26.29198384 45.98801793 -30.27583334 56.24313121 -32.77287292 66.29162598 C-33.39587348 70.07286418 -33.4139047 73.80594021 -33.42700195 77.62695312 C-33.43357315 78.46511566 -33.44014435 79.3032782 -33.44691467 80.1668396 C-33.46658333 82.93414412 -33.47829898 85.70139439 -33.48828125 88.46875 C-33.49235678 89.41880417 -33.4964323 90.36885834 -33.50063133 91.34770203 C-33.52146962 96.38121317 -33.53577826 101.41469728 -33.54516602 106.44824219 C-33.55619607 111.61819962 -33.59056305 116.7877226 -33.63033772 121.95752716 C-33.65663255 125.95728288 -33.66486945 129.95693733 -33.66844749 133.95677185 C-33.67328413 135.86074237 -33.68481342 137.76470926 -33.70348549 139.66859436 C-33.83591507 154.07258067 -32.6314698 166.06813063 -24.5 178.4375 C-20.25 185.13891066 -20.25 185.13891066 -20.25 186.1875 C-41.37 186.1875 -62.49 186.1875 -84.25 186.1875 C-82.42375095 181.62187736 -80.32304656 177.9810874 -77.6875 173.8828125 C-73.79161247 166.57802338 -73.9533074 159.55211632 -73.95947266 151.43432617 C-73.95275543 150.1618956 -73.94603821 148.88946503 -73.93911743 147.57847595 C-73.92152356 144.1031038 -73.91676486 140.62783028 -73.91548586 137.1524179 C-73.9140599 134.97650818 -73.90978192 132.80062318 -73.90449142 130.62471962 C-73.88601279 123.02054897 -73.87781806 115.41644822 -73.87939453 107.81225586 C-73.88059524 100.74522989 -73.8595014 93.67850965 -73.8279072 86.611561 C-73.80168018 80.52637375 -73.79102992 74.44128596 -73.79230535 68.35604268 C-73.79281312 64.72948741 -73.78723359 61.10320408 -73.76594925 57.47670555 C-73.74282903 53.42721321 -73.75212681 49.37839798 -73.76416016 45.32885742 C-73.75292114 44.14151001 -73.74168213 42.9541626 -73.73010254 41.73083496 C-73.80314062 32.02926446 -75.89199068 24.23221789 -82.375 16.8125 C-84.89649981 13.89136625 -86.49531858 11.69686284 -88.25 8.1875 C-70.76 8.1875 -53.27 8.1875 -35.25 8.1875 C-35.25 9.8375 -35.25 11.4875 -35.25 13.1875 C-33.89068359 12.26517578 -33.89068359 12.26517578 -32.50390625 11.32421875 C-19.85949223 2.8818601 -19.85949223 2.8818601 -12.25 1.1875 C-11.49332031 1.00574219 -10.73664063 0.82398438 -9.95703125 0.63671875 C-6.60955944 0.08122199 -3.39315426 0.0174545 0 0 Z " fill="#96082A" transform="translate(1835.25,236.8125)"/>
<path d="M0 0 C16.5 0 33 0 50 0 C50.029729 6.97241821 50.029729 6.97241821 50.06005859 14.08569336 C50.12696889 29.44456494 50.20450962 44.80336926 50.28752708 60.16216183 C50.33760036 69.47405806 50.38404382 78.78594571 50.421875 88.09790039 C50.45486666 96.21634617 50.49473734 104.33472439 50.54279006 112.4530955 C50.56798383 116.74974769 50.58978598 121.04635548 50.60334396 125.34306145 C50.61622917 129.39205581 50.63835243 133.44089735 50.66738319 137.48980713 C50.6764087 138.97117517 50.68213738 140.45256779 50.68421364 141.93396187 C50.70154158 152.42480108 50.8711638 161.33317893 56.625 170.4375 C60 175.83061224 60 175.83061224 60 178 C40.86 178 21.72 178 2 178 C3.83909061 173.40227348 5.6017217 170.77150621 8.66015625 167.0625 C11.25115029 163.07403103 11.12718214 158.65656923 11.14044189 154.01699829 C11.14615204 152.81701706 11.15186218 151.61703583 11.15774536 150.38069153 C11.15886322 149.07250961 11.15998108 147.7643277 11.16113281 146.41650391 C11.16576454 145.01827362 11.17078968 143.62004459 11.17617798 142.22181702 C11.18926775 138.43044216 11.19573996 134.63908497 11.20018864 130.84769106 C11.20312424 128.47717713 11.20722991 126.10666798 11.21169281 123.73615646 C11.22535727 116.31391537 11.23502968 108.89168527 11.2388947 101.46943247 C11.24337628 92.91120643 11.26093318 84.35314003 11.2898953 75.79496253 C11.31152716 69.1722985 11.32159975 62.54967935 11.32293582 55.92698038 C11.32398255 51.97469141 11.32986255 48.02255273 11.34775543 44.07030106 C11.36426277 40.35201872 11.36637885 36.63399926 11.35761642 32.91569328 C11.356482 30.90723125 11.3701778 28.89877782 11.3843689 26.8903656 C11.34899429 19.23240273 11.12918389 13.61980163 5.95703125 7.63671875 C5.24933594 6.99347656 4.54164063 6.35023438 3.8125 5.6875 C2.5094947 4.49249153 1.2295624 3.27045046 0 2 C0 1.34 0 0.68 0 0 Z " fill="#96082A" transform="translate(2181,245)"/>
<path d="M0 0 C14 0 14 0 17.8125 2.8125 C18.91301462 4.17856168 19.97265412 5.57809375 21 7 C22.38938844 8.71357907 23.78578357 10.42149053 25.1875 12.125 C25.93515625 13.05570313 26.6828125 13.98640625 27.453125 14.9453125 C30.82833939 18.99349909 34.39936344 22.83848345 38.0144043 26.67236328 C40.23521442 29.03698266 42.19528792 31.29293187 44 34 C44.33 22.78 44.66 11.56 45 0 C50.28 0 55.56 0 61 0 C61 20.13 61 40.26 61 61 C47 61 47 61 43.4296875 58.4296875 C42.11181641 56.73266602 42.11181641 56.73266602 40.875 54.875 C39.90228326 53.58890375 38.92828545 52.30377559 37.953125 51.01953125 C37.47166016 50.35518066 36.99019531 49.69083008 36.49414062 49.00634766 C34.0410897 45.71236522 31.32689964 42.65267637 28.625 39.5625 C27.67839461 38.46074493 26.73304008 37.35791365 25.7890625 36.25390625 C25.33950195 35.72941895 24.88994141 35.20493164 24.42675781 34.66455078 C21.95117188 31.77636719 19.47558594 28.88818359 17 26 C16.97494385 27.02472412 16.9498877 28.04944824 16.92407227 29.10522461 C16.83015516 32.89409676 16.72989683 36.68277881 16.62768555 40.47143555 C16.58427703 42.11364303 16.54260642 43.75589739 16.50268555 45.39819336 C16.4451256 47.75388745 16.38139108 50.10934428 16.31640625 52.46484375 C16.29133751 53.57266457 16.29133751 53.57266457 16.26576233 54.7028656 C16.11387171 59.88612829 16.11387171 59.88612829 15 61 C10.05 61 5.1 61 0 61 C0 40.87 0 20.74 0 0 Z " fill="#DEBF8A" transform="translate(927,47)"/>
<path d="M0 0 C15 0 15 0 20.375 4.8125 C21.95355371 6.84690668 23.49568762 8.91009889 25 11 C26.48917085 12.84214041 27.98898926 14.67573093 29.5 16.5 C30.985 18.315 32.47 20.13 34 22 C37.3 25.63 40.6 29.26 44 33 C44.33 22.11 44.66 11.22 45 0 C50.28 0 55.56 0 61 0 C61 19.8 61 39.6 61 60 C47 60 47 60 43.76171875 57.98046875 C43.07722656 57.05878906 42.39273437 56.13710938 41.6875 55.1875 C40.89730469 54.18074219 40.10710937 53.17398438 39.29296875 52.13671875 C38.53628906 51.10160156 37.77960938 50.06648437 37 49 C35.50927258 47.15911899 34.00944779 45.32556251 32.5 43.5 C31.778125 42.60410156 31.05625 41.70820312 30.3125 40.78515625 C27.00209243 36.79812821 23.49659616 33.00945606 19.96875 29.21484375 C18 27 18 27 17 25 C16.67 36.55 16.34 48.1 16 60 C10.72 60 5.44 60 0 60 C0 40.2 0 20.4 0 0 Z " fill="#DDBE89" transform="translate(1515,547)"/>
<path d="M0 0 C0.233511 27.40714437 0.40989929 54.81413987 0.51812172 82.22207832 C0.56970515 94.94786946 0.64004113 107.67304285 0.75439453 120.3984375 C0.85400773 131.48880096 0.91856802 142.57871711 0.94088495 153.66951549 C0.95393254 159.54333351 0.98463265 165.41587179 1.05730057 171.28927994 C1.12513649 176.81688004 1.14612519 182.34267252 1.13107681 187.87064934 C1.13382993 189.90005122 1.15375062 191.92951299 1.19205475 193.95855522 C1.46774789 209.31469335 1.46774789 209.31469335 -2.23225784 213.56313705 C-5.40827935 215.54106574 -8.20951198 217 -12 217 C-12 146.38 -12 75.76 -12 3 C-4 0 -4 0 0 0 Z " fill="#DDBE89" transform="translate(269,262)"/>
<path d="M0 0 C7.425 -0.0928125 7.425 -0.0928125 15 -0.1875 C16.54558594 -0.21481201 18.09117188 -0.24212402 19.68359375 -0.27026367 C28.14720415 -0.32145486 34.50292661 0.10188604 41.8125 4.8125 C45.80624583 8.80624583 47.18635723 12.42463052 47.4375 18 C47.24885611 23.98270613 44.78976523 27.11080337 40.75 31.375 C39.88375 32.179375 39.88375 32.179375 39 33 C39.72574219 33.79019531 40.45148438 34.58039063 41.19921875 35.39453125 C44.55818385 39.42884383 46.63123249 43.94387832 48.8125 48.6875 C49.42254883 49.96850586 49.42254883 49.96850586 50.04492188 51.27539062 C53 57.59776786 53 57.59776786 53 61 C47.39 61 41.78 61 36 61 C34.96875 58.69 33.9375 56.38 32.875 54 C29.07588112 45.18865872 29.07588112 45.18865872 23 38 C20.69 37.34 18.38 36.68 16 36 C16 44.25 16 52.5 16 61 C10.72 61 5.44 61 0 61 C0 40.87 0 20.74 0 0 Z M16 12 C16 16.29 16 20.58 16 25 C22.13584927 25.3184525 22.13584927 25.3184525 28 23.875 C30.24001203 22.0729949 30.24001203 22.0729949 31 19 C31.29325491 16.03200202 31.29325491 16.03200202 29.6875 14.1875 C26.58506594 12.00430566 24.63351198 11.88931395 20.875 11.9375 C19.26625 11.958125 17.6575 11.97875 16 12 Z " fill="#DEBF89" transform="translate(1429,47)"/>
<path d="M0 0 C5.48625 -0.061875 10.9725 -0.12375 16.625 -0.1875 C18.34541504 -0.21481201 20.06583008 -0.24212402 21.83837891 -0.27026367 C23.21776632 -0.27903398 24.59716156 -0.28667663 25.9765625 -0.29296875 C26.67998779 -0.30831665 27.38341309 -0.32366455 28.1081543 -0.33947754 C33.68160171 -0.34240785 37.77298884 0.90371486 41.86328125 4.75390625 C42.34152344 5.35074219 42.81976562 5.94757812 43.3125 6.5625 C44.04919922 7.46162109 44.04919922 7.46162109 44.80078125 8.37890625 C47.87983719 12.54114799 47.54587787 17.00484356 47 22 C45.44679427 26.34575695 42.97492919 29.58665013 39 32 C39.57492188 32.66257812 40.14984375 33.32515625 40.7421875 34.0078125 C43.34998067 37.46381521 45.22098972 41.0018232 47.125 44.875 C47.47175781 45.55691406 47.81851563 46.23882813 48.17578125 46.94140625 C48.51222656 47.61816406 48.84867188 48.29492188 49.1953125 48.9921875 C49.64414795 49.89493408 49.64414795 49.89493408 50.10205078 50.81591797 C51.32271151 53.78493125 52.11810442 56.91336548 53 60 C47.39 60 41.78 60 36 60 C32.25 52.375 32.25 52.375 31.09472656 50.00927734 C30.09285475 47.98963912 29.05225685 45.99380139 28 44 C27.12601563 42.31777344 27.12601563 42.31777344 26.234375 40.6015625 C23.65903767 37.09601011 23.65903767 37.09601011 16 36 C16 43.92 16 51.84 16 60 C10.72 60 5.44 60 0 60 C0 40.2 0 20.4 0 0 Z M16 12 C16 15.96 16 19.92 16 24 C23.20067469 24.62470799 23.20067469 24.62470799 29.75 22.375 C31.2515692 19.98623412 31.2515692 19.98623412 30.9375 16.875 C30.23305313 13.70825068 30.23305313 13.70825068 27 12 C24.25481679 11.75812349 24.25481679 11.75812349 21.3125 11.875 C19.559375 11.91625 17.80625 11.9575 16 12 Z " fill="#DEBF89" transform="translate(2017,547)"/>
<path d="M0 0 C5.28 0 10.56 0 16 0 C16.01401855 1.72500732 16.01401855 1.72500732 16.02832031 3.48486328 C16.06831384 7.76796632 16.13409835 12.05035813 16.20751953 16.33300781 C16.23567498 18.18350053 16.25691646 20.03411229 16.27099609 21.88476562 C16.2925012 24.5513988 16.3391886 27.21660884 16.390625 29.8828125 C16.39185364 30.70492218 16.39308228 31.52703186 16.39434814 32.37405396 C16.5286627 37.68949403 17.47511092 40.78175722 21 45 C25.01363723 47.45277831 29.40665166 47.57642018 34 47 C37.41821428 45.77460243 39.36962206 44.78973628 41.63598633 41.95043945 C43.50247659 37.91311444 43.47773791 34.37979613 43.51171875 29.98046875 C43.52966995 29.12189774 43.54762115 28.26332672 43.56611633 27.3787384 C43.62010741 24.6483749 43.65407874 21.91818508 43.6875 19.1875 C43.720683 17.3313561 43.75517358 15.47523508 43.79101562 13.61914062 C43.87582734 9.07955262 43.94269177 4.54001514 44 0 C49.28 0 54.56 0 60 0 C60.07450314 5.83493296 60.12876864 11.66958518 60.16479492 17.50488281 C60.17982344 19.4873538 60.20025198 21.46979186 60.22631836 23.45214844 C60.26296383 26.31193193 60.27978604 29.17127344 60.29296875 32.03125 C60.30845261 32.90865845 60.32393646 33.78606689 60.33988953 34.69006348 C60.34174075 41.55490696 58.97249767 46.73779231 55.375 52.6875 C47.43077404 60.42266738 38.88965918 61.31926908 28.35620117 61.31030273 C20.4148901 61.17209447 13.84792371 60.28914931 7.6328125 54.9765625 C0.66496641 47.71115715 -0.31168981 41.05119625 -0.1953125 31.34765625 C-0.1924826 30.44752304 -0.18965271 29.54738983 -0.18673706 28.61997986 C-0.17561278 25.7673468 -0.15052283 22.91503689 -0.125 20.0625 C-0.11496017 18.11914518 -0.10583608 16.17578541 -0.09765625 14.23242188 C-0.07569888 9.48815824 -0.04122301 4.74413376 0 0 Z " fill="#DEBE88" transform="translate(784,47)"/>
<path d="M0 0 C5.28 0 10.56 0 16 0 C16.01981934 1.1552417 16.03963867 2.3104834 16.06005859 3.50073242 C16.13626941 7.79668561 16.22496289 12.09230692 16.31738281 16.38793945 C16.35560866 18.24529456 16.39047263 20.10272208 16.421875 21.96020508 C16.46766461 24.63388912 16.52563579 27.30707742 16.5859375 29.98046875 C16.59748871 30.80773972 16.60903992 31.63501068 16.62094116 32.48735046 C16.7284252 36.70905445 16.92115115 40.20848147 19 44 C23.58060865 46.69294762 28.68936011 47.40067026 33.875 46.4375 C37.55150588 45.35464906 39.83486951 44.29099834 42 41 C43.58154485 35.6162628 44.31870951 30.61776274 44.4140625 25 C44.43342865 24.2788501 44.4527948 23.5577002 44.4727478 22.81469727 C44.53185263 20.54324647 44.57864775 18.27174305 44.625 16 C44.66324366 14.44659421 44.70229896 12.89320817 44.7421875 11.33984375 C44.83900296 7.56000698 44.91911425 3.78034435 45 0 C49.95 0 54.9 0 60 0 C60.09944869 5.81660061 60.1717413 11.63269792 60.21972656 17.44995117 C60.23974646 19.4256249 60.26697092 21.40124009 60.30175781 23.37670898 C60.35070207 26.2291515 60.37306525 29.08080549 60.390625 31.93359375 C60.41127014 32.80584091 60.43191528 33.67808807 60.45318604 34.57676697 C60.45564945 41.42740006 59.02917386 47.65354102 54.3213501 52.85447693 C46.3395552 60.28263898 37.10726957 61.32100073 26.57421875 61.2109375 C18.07898714 60.70957957 11.09361827 58.05139921 5 52 C1.47575741 47.28057949 -0.13155846 42.62494218 -0.11352539 36.78222656 C-0.11344986 35.96167786 -0.11337433 35.14112915 -0.11329651 34.29571533 C-0.10813522 33.41953552 -0.10297394 32.54335571 -0.09765625 31.640625 C-0.0962413 30.73624695 -0.09482635 29.8318689 -0.09336853 28.90008545 C-0.08777911 26.01668973 -0.07522853 23.13337218 -0.0625 20.25 C-0.05748363 18.29296987 -0.05292096 16.33593853 -0.04882812 14.37890625 C-0.03781313 9.58590747 -0.02055574 4.79296698 0 0 Z " fill="#DEBE89" transform="translate(1372,547)"/>
<path d="M0 0 C14.85 0 29.7 0 45 0 C45 3.96 45 7.92 45 12 C35.43 12 25.86 12 16 12 C16 15.96 16 19.92 16 24 C24.91 24 33.82 24 43 24 C43 27.63 43 31.26 43 35 C34.09 35 25.18 35 16 35 C16 39.62 16 44.24 16 49 C25.57 49 35.14 49 45 49 C45 52.96 45 56.92 45 61 C38.75203746 61.02464455 32.50410297 61.04283343 26.25610352 61.05493164 C24.12881986 61.05997298 22.00153969 61.06680591 19.87426758 61.07543945 C16.82372174 61.08751379 13.77322155 61.09323014 10.72265625 61.09765625 C9.28672874 61.10539818 9.28672874 61.10539818 7.8217926 61.11329651 C6.94095505 61.11337204 6.06011749 61.11344757 5.15258789 61.11352539 C3.9834359 61.11685631 3.9834359 61.11685631 2.79066467 61.12025452 C1 61 1 61 0 60 C-0.09386381 58.1281906 -0.11743804 56.2528194 -0.11352539 54.37866211 C-0.11344986 53.17749252 -0.11337433 51.97632294 -0.11329651 50.73875427 C-0.10813522 49.4314888 -0.10297394 48.12422333 -0.09765625 46.77734375 C-0.09579198 45.43355868 -0.09436812 44.08977293 -0.09336853 42.74598694 C-0.08954402 39.20317723 -0.07971432 35.6604083 -0.06866455 32.11761475 C-0.05844899 28.50484784 -0.0538159 24.89207416 -0.04882812 21.27929688 C-0.03862218 14.18616187 -0.01905051 7.09313893 0 0 Z " fill="#DDBE88" transform="translate(1303,47)"/>
<path d="M0 0 C14.52 0 29.04 0 44 0 C44 3.96 44 7.92 44 12 C34.43 12 24.86 12 15 12 C15 15.63 15 19.26 15 23 C23.91 23 32.82 23 42 23 C42 26.96 42 30.92 42 35 C33.09 35 24.18 35 15 35 C15 39.29 15 43.58 15 48 C24.57 48 34.14 48 44 48 C44 51.96 44 55.92 44 60 C29.48 60 14.96 60 0 60 C0 40.2 0 20.4 0 0 Z " fill="#DEBE88" transform="translate(1892,547)"/>
<path d="M0 0 C14.52 0 29.04 0 44 0 C44 3.96 44 7.92 44 12 C34.43 12 24.86 12 15 12 C15 15.96 15 19.92 15 24 C23.91 24 32.82 24 42 24 C42 27.63 42 31.26 42 35 C33.09 35 24.18 35 15 35 C15 39.62 15 44.24 15 49 C24.57 49 34.14 49 44 49 C44 52.96 44 56.92 44 61 C29.48 61 14.96 61 0 61 C0 40.87 0 20.74 0 0 Z " fill="#DEBF89" transform="translate(1915,47)"/>
<path d="M0 0 C14.19 0 28.38 0 43 0 C43 14.52 43 29.04 43 44 C28.81 44 14.62 44 0 44 C0 29.48 0 14.96 0 0 Z " fill="#95092B" transform="translate(2188,174)"/>
<path d="M0 0 C1 1 1 1 1.09765625 3.72265625 C1.08605469 4.82480469 1.07445313 5.92695312 1.0625 7.0625 C1.05347656 8.16722656 1.04445313 9.27195312 1.03515625 10.41015625 C1.02355469 11.26480469 1.01195313 12.11945312 1 13 C-2.36712886 12.38508108 -5.51050559 11.53321134 -8.75 10.4375 C-13.48965886 8.99222286 -18.06043645 8.22219552 -23 9 C-23.99 9.66 -24.98 10.32 -26 11 C-25.77007298 12.9584987 -25.77007298 12.9584987 -25 15 C-22.30177489 16.30588132 -19.74347588 17.36582294 -16.9375 18.375 C-9.36796828 21.29948457 -2.96657526 24.01366449 2 30.6875 C3.68109796 36.25613699 4.15287015 41.79224555 2.15625 47.34765625 C-1.08658091 53.20885401 -5.62678478 55.63394325 -11.86328125 57.58203125 C-20.29687483 59.231747 -29.11811912 58.37200186 -37 55 C-38.36705078 54.42765625 -38.36705078 54.42765625 -39.76171875 53.84375 C-42 52 -42 52 -42.48828125 48.64453125 C-42.43027344 47.37996094 -42.37226563 46.11539063 -42.3125 44.8125 C-42.24482422 42.90404297 -42.24482422 42.90404297 -42.17578125 40.95703125 C-42.11777344 39.98121094 -42.05976563 39.00539063 -42 38 C-41.18015625 38.42152344 -40.3603125 38.84304688 -39.515625 39.27734375 C-38.43796875 39.82519531 -37.3603125 40.37304688 -36.25 40.9375 C-34.64898438 41.75541016 -34.64898438 41.75541016 -33.015625 42.58984375 C-29.00728276 44.46421104 -25.8428388 45.15022979 -21.4375 45.1875 C-20.29087891 45.20876953 -20.29087891 45.20876953 -19.12109375 45.23046875 C-16.69846497 45.1323375 -16.69846497 45.1323375 -14 43 C-13.77304075 40.60769351 -13.77304075 40.60769351 -15 38 C-17.8839364 36.23409697 -21.01833898 35.15412822 -24.1875 34 C-31.47286374 31.28660185 -37.2159338 28.89769268 -41.875 22.375 C-43.88975125 16.33074624 -44.10646731 10.48955146 -41.5 4.625 C-30.12245582 -7.32142139 -14.40543008 -5.72081673 0 0 Z " fill="#DEBE89" transform="translate(2187,550)"/>
<path d="M0 0 C0 3.96 0 7.92 0 12 C-0.99 12.495 -0.99 12.495 -2 13 C-4.03125 12.2578125 -4.03125 12.2578125 -6.5 11.125 C-12.61201687 8.5775892 -18.64616958 6.99385087 -25.125 8.9375 C-25.74375 9.288125 -26.3625 9.63875 -27 10 C-26.75944414 11.94482525 -26.75944414 11.94482525 -26 14 C-22.56953884 15.99590467 -19.25289442 17.5467412 -15.52734375 18.89453125 C-8.7589039 21.35292903 -2.77387255 24.64492974 1.19921875 30.8828125 C3.17660002 36.11081568 2.60957918 42.17126245 0.875 47.375 C-2.85207981 52.59291173 -6.8584509 55.36321923 -13 57 C-15.77951511 57.23832333 -18.41124119 57.38030475 -21.1875 57.375 C-22.30427124 57.37584595 -22.30427124 57.37584595 -23.44360352 57.37670898 C-30.66605271 57.23389881 -36.57373324 55.21313338 -43 52 C-43 47.38 -43 42.76 -43 38 C-38 40 -38 40 -35.96484375 41.0703125 C-29.80014325 44.27738213 -23.89247104 44.9247309 -17 44 C-16.34 43.34 -15.68 42.68 -15 42 C-15.05954429 39.94794354 -15.05954429 39.94794354 -16 38 C-19.43046116 36.00409533 -22.74710558 34.4532588 -26.47265625 33.10546875 C-33.23561279 30.64906259 -39.23868081 27.35855284 -43.1953125 21.11328125 C-45.00850816 16.35144215 -44.72691462 10.7882368 -43.453125 5.90234375 C-40.82157559 0.25444289 -35.59458931 -1.90530198 -30 -4 C-19.64422954 -6.68482938 -9.61812493 -3.92318254 0 0 Z " fill="#DEBE89" transform="translate(1600,51)"/>
<path d="M0 0 C5.61 0 11.22 0 17 0 C18.99737324 4.23422745 20.9923826 8.46940486 22.98144531 12.70751953 C23.65910378 14.14957414 24.33813524 15.59098436 25.01855469 17.03173828 C25.99513827 19.10021635 26.96679503 21.17094546 27.9375 23.2421875 C28.24373291 23.88807831 28.54996582 24.53396912 28.86547852 25.19943237 C31 29.77225659 31 29.77225659 31 32 C31.66 32 32.32 32 33 32 C33.10884521 31.30688721 33.21769043 30.61377441 33.32983398 29.8996582 C34.09946403 26.56964144 35.31939994 23.72217486 36.72265625 20.60546875 C37.26083984 19.40341797 37.79902344 18.20136719 38.35351562 16.96289062 C38.92306568 15.70437666 39.49272855 14.44591375 40.0625 13.1875 C40.63653896 11.90971681 41.21011161 10.63172403 41.78320312 9.35351562 C43.18421577 6.23361352 44.59150608 3.1165318 46 0 C51.61 0 57.22 0 63 0 C62.27464001 3.62679994 61.74589956 5.90111441 60.25341797 9.09326172 C59.89569305 9.86531952 59.53796814 10.63737732 59.16940308 11.43283081 C58.78092194 12.25679352 58.3924408 13.08075623 57.9921875 13.9296875 C57.58847931 14.7970755 57.18477112 15.6644635 56.76882935 16.55813599 C55.47596717 19.33282835 54.17562353 22.10393859 52.875 24.875 C52.02293954 26.70028846 51.1713722 28.52580721 50.3203125 30.3515625 C48.26931592 34.74867804 46.21250541 39.14304166 44.15368652 43.53649902 C42.39304379 47.29605155 40.63767221 51.05805796 38.8828125 54.8203125 C38.58696259 55.45444061 38.29111267 56.08856873 37.98629761 56.74191284 C37.32412845 58.16124259 36.66205182 59.58061551 36 61 C33.36 61 30.72 61 28 61 C22.65033484 50.45449392 17.46771061 39.82900712 12.3125 29.1875 C11.98925751 28.52136688 11.66601501 27.85523376 11.33297729 27.16891479 C8.19978796 20.7096314 5.08185479 14.24254489 2.04296875 7.73828125 C1.64489014 6.88919189 1.24681152 6.04010254 0.83666992 5.1652832 C0 3 0 3 0 0 Z " fill="#DEBF89" transform="translate(1164,47)"/>
<path d="M0 0 C5.61 0 11.22 0 17 0 C17.91523437 1.90265625 18.83046875 3.8053125 19.7734375 5.765625 C20.6636639 7.61575783 21.55399491 9.46584029 22.44433594 11.31591797 C23.06130729 12.59809191 23.67817051 13.88031788 24.29492188 15.16259766 C25.1833067 17.00957837 26.07208491 18.85636935 26.9609375 20.703125 C27.49509277 21.81333008 28.02924805 22.92353516 28.57958984 24.06738281 C29.70319419 26.38720671 30.8394629 28.69851293 32 31 C32.38857178 30.13197754 32.77714355 29.26395508 33.17749023 28.36962891 C34.61773733 25.15283992 36.05837062 21.93622448 37.49926758 18.71972656 C38.12312088 17.3268925 38.74681962 15.9339892 39.37036133 14.54101562 C40.26603333 12.5401827 41.1622587 10.53959846 42.05859375 8.5390625 C42.86768188 6.73236084 42.86768188 6.73236084 43.69311523 4.88916016 C44.43579666 3.24729729 45.19411051 1.61177899 46 0 C51.61 0 57.22 0 63 0 C60.98238235 6.39644726 58.58345687 12.39786717 55.7265625 18.4609375 C55.32094086 19.3321524 54.91531921 20.20336731 54.49740601 21.10098267 C53.21117351 23.86114872 51.91830502 26.61814188 50.625 29.375 C49.76516413 31.21593065 48.90578537 33.05707487 48.046875 34.8984375 C46.8053461 37.55988312 45.56349903 40.22117276 44.31964111 42.88153076 C41.50528809 48.90275691 38.7240821 54.93728852 36 61 C33.36 61 30.72 61 28 61 C23.4414808 51.63323472 18.88800824 42.26404365 14.34324646 32.89059448 C12.60370567 29.30329628 10.86303896 25.71658111 9.11523438 22.13330078 C7.55083966 18.92466767 5.99317371 15.71286778 4.4375 12.5 C3.75046997 11.09802368 3.75046997 11.09802368 3.04956055 9.66772461 C2.43528198 8.39360718 2.43528198 8.39360718 1.80859375 7.09375 C1.45595459 6.36865234 1.10331543 5.64355469 0.73999023 4.89648438 C0 3 0 3 0 0 Z " fill="#DEBE89" transform="translate(1752,547)"/>
<path d="M0 0 C15.93537278 -2.22930086 15.93537278 -2.22930086 20.97949219 1.43994141 C24.59350785 5.25881244 30 11.58029572 30 17 C33.83821695 13.49356113 35.87030676 10.32718282 38.125 5.6875 C40.11744381 2.5205222 41.47716473 0.37451707 45.22167969 -0.54638672 C50.85216703 -1.06231475 56.39346503 -0.61038889 62 0 C60.53938926 4.32626551 58.33620545 7.37878019 55.5 10.9375 C54.84656616 11.79589478 54.84656616 11.79589478 54.17993164 12.67163086 C51.95893783 15.5861633 49.70562451 18.34676247 47.15234375 20.9765625 C37.06557147 32.05772985 38.66419472 45.75790544 39 60 C33.72 60 28.44 60 23 60 C23.07863281 58.10378906 23.15726563 56.20757813 23.23828125 54.25390625 C23.51141833 39.45670472 22.99648222 28.79754045 12.45703125 17.5546875 C11.87260254 16.96268555 11.28817383 16.37068359 10.68603516 15.76074219 C8.09234598 13.05212847 5.90171982 10.08234814 3.6875 7.0625 C2.96949219 6.12535156 2.25148438 5.18820312 1.51171875 4.22265625 C0 2 0 2 0 0 Z " fill="#DEBE89" transform="translate(2496,547)"/>
<path d="M0 0 C19.47 0 38.94 0 59 0 C59 3.96 59 7.92 59 12 C51.74 12 44.48 12 37 12 C37 28.17 37 44.34 37 61 C32.05 61 27.1 61 22 61 C22 44.83 22 28.66 22 12 C14.74 12 7.48 12 0 12 C0 8.04 0 4.08 0 0 Z " fill="#DDBF89" transform="translate(1777,47)"/>
<path d="M0 0 C19.47 0 38.94 0 59 0 C59 3.96 59 7.92 59 12 C51.74 12 44.48 12 37 12 C37 27.84 37 43.68 37 60 C32.05 60 27.1 60 22 60 C22 44.16 22 28.32 22 12 C14.74 12 7.48 12 0 12 C0 8.04 0 4.08 0 0 Z " fill="#DEBE88" transform="translate(2365,547)"/>
<path d="M0 0 C5.28 0 10.56 0 16 0 C16 20.13 16 40.26 16 61 C10.72 61 5.44 61 0 61 C0 40.87 0 20.74 0 0 Z " fill="#DDBE89" transform="translate(1682,47)"/>
<path d="M0 0 C5.28 0 10.56 0 16 0 C16 20.13 16 40.26 16 61 C10.72 61 5.44 61 0 61 C0 40.87 0 20.74 0 0 Z " fill="#DEBE89" transform="translate(1071,47)"/>
<path d="M0 0 C5.28 0 10.56 0 16 0 C16 19.8 16 39.6 16 60 C10.72 60 5.44 60 0 60 C0 40.2 0 20.4 0 0 Z " fill="#DEBE89" transform="translate(2270,547)"/>
<path d="M0 0 C5.28 0 10.56 0 16 0 C16 19.8 16 39.6 16 60 C10.72 60 5.44 60 0 60 C0 40.2 0 20.4 0 0 Z " fill="#DEBE89" transform="translate(1659,547)"/>
<path d="M0 0 C4.95 0 9.9 0 15 0 C4.71117899 12.5473427 4.71117899 12.5473427 -0.22265625 13.37109375 C-2.4375 13.375 -2.4375 13.375 -6 13 C-4.58707905 8.1725201 -2.57025846 4.2837641 0 0 Z " fill="#DEBF89" transform="translate(1935,29)"/>
</svg>
