<?xml version="1.0" encoding="UTF-8"?>
<svg version="1.1" xmlns="http://www.w3.org/2000/svg" width="2560" height="918">
<path d="M0 0 C0.82331818 0.00060425 1.64663635 0.0012085 2.49490356 0.00183105 C49.91129317 0.09538714 96.17394708 7.6782179 141.8125 20.1875 C142.79734375 20.4551416 143.7821875 20.7227832 144.796875 20.99853516 C147.26425766 21.67376722 149.72705207 22.36247538 152.1875 23.0625 C152.87118652 23.25336182 153.55487305 23.44422363 154.25927734 23.64086914 C155.79669742 24.09436902 157.30900906 24.63176839 158.8125 25.1875 C160.12848971 27.81947941 159.65533675 29.1319397 159.17347717 32.0259552 C159.00656876 33.04800552 158.83966034 34.07005585 158.66769409 35.12307739 C158.38177902 36.81169388 158.38177902 36.81169388 158.09008789 38.53442383 C157.89516251 39.71662003 157.70023712 40.89881622 157.49940491 42.11683655 C157.07392599 44.69176359 156.64611038 47.26617389 156.2143116 49.84003639 C155.53145532 53.91087879 154.85789171 57.98322461 154.18565369 62.05583191 C152.99955353 69.23417602 151.8056208 76.41120068 150.60992432 83.58795166 C148.8114244 94.38302128 147.01859149 105.17902814 145.23382944 115.97637767 C144.56457968 120.02329613 143.89107639 124.06947684 143.21419346 128.1151253 C142.69448117 131.22703628 142.17984689 134.33978815 141.66430664 137.45239258 C141.38142792 139.13190002 141.38142792 139.13190002 141.09283447 140.84533691 C140.92310623 141.87584671 140.75337799 142.90635651 140.57850647 143.96809387 C140.35532793 145.3067889 140.35532793 145.3067889 140.12764072 146.67252827 C139.8102335 149.20558771 139.75633923 151.63751511 139.8125 154.1875 C140.84246094 153.37667969 141.87242187 152.56585938 142.93359375 151.73046875 C189.61374897 115.3043341 244.44945472 93.94577581 302.8125 85.1875 C303.83166504 85.02378906 304.85083008 84.86007813 305.90087891 84.69140625 C339.58879778 79.42749899 377.19845191 79.42974611 410.8125 85.1875 C411.87210938 85.35910645 412.93171875 85.53071289 414.0234375 85.70751953 C442.40268129 90.3775745 470.47730922 98.53362147 495.90625 112.16650391 C497.18047168 112.84898278 498.45919512 113.52312037 499.7421875 114.18896484 C524.7489991 127.17568503 548.45376343 146.3041251 563.8125 170.1875 C567.38839607 166.66324142 570.81659501 163.03365983 574.1875 159.3125 C576.05948799 157.26804717 577.93603402 155.22784948 579.8125 153.1875 C580.39902344 152.54425781 580.98554687 151.90101563 581.58984375 151.23828125 C587.35752249 145.17708196 594.15445906 140.21829259 600.8125 135.1875 C601.3895166 134.74970215 601.9665332 134.3119043 602.56103516 133.86083984 C611.53157661 127.1053735 620.89895307 121.44670831 630.8125 116.1875 C631.42754395 115.85540527 632.04258789 115.52331055 632.67626953 115.18115234 C661.49961554 99.69524563 692.74437433 90.8983239 724.8125 85.1875 C725.80717285 85.00670898 726.8018457 84.82591797 727.82666016 84.63964844 C759.74425091 79.13680417 795.93958849 79.70661018 827.8125 85.1875 C828.86002441 85.36442383 829.90754883 85.54134766 830.98681641 85.72363281 C850.76522096 89.16309707 869.86729699 94.61051708 888.8125 101.1875 C889.22822266 99.79724609 889.22822266 99.79724609 889.65234375 98.37890625 C890.01457031 97.18136719 890.37679688 95.98382813 890.75 94.75 C891.28947266 92.95755859 891.28947266 92.95755859 891.83984375 91.12890625 C892.8125 88.1875 892.8125 88.1875 893.8125 87.1875 C895.86623423 87.08960875 897.92340446 87.06378785 899.97947025 87.06445217 C900.63402471 87.06329833 901.28857917 87.06214448 901.96296862 87.06095567 C904.18359422 87.05828265 906.40414911 87.06281675 908.62477112 87.06724548 C910.22193209 87.06680992 911.81909299 87.06593529 913.41625351 87.06465632 C917.82641226 87.06240841 922.23654696 87.06643666 926.64670265 87.07143438 C931.39451403 87.07573447 936.14232394 87.07429277 940.89013672 87.0735321 C949.12311184 87.07300659 957.35607907 87.07615627 965.5890522 87.08176994 C977.49269444 87.08988121 989.39633283 87.09249978 1001.29997753 87.09375793 C1020.6107131 87.09594904 1039.92144446 87.10261072 1059.23217773 87.11206055 C1077.99584939 87.12123315 1096.75951991 87.12831472 1115.52319336 87.13256836 C1116.67889792 87.13283108 1117.83460249 87.13309381 1119.02532841 87.13336449 C1124.82289334 87.13466949 1130.62045828 87.1359332 1136.41802323 87.13717639 C1184.5495184 87.14755084 1232.68100899 87.16517075 1280.8125 87.1875 C1279.74647958 95.99768066 1279.74647958 95.99768066 1278.68920898 99.40039062 C1278.46905624 100.12053345 1278.2489035 100.84067627 1278.02207947 101.5826416 C1277.66890404 102.70189026 1277.66890404 102.70189026 1277.30859375 103.84375 C1276.94448143 105.02535706 1276.94448143 105.02535706 1276.57301331 106.23083496 C1275.80491961 108.71837513 1275.02763441 111.20292792 1274.25 113.6875 C1273.72399628 115.38522683 1273.19859977 117.08314193 1272.67382812 118.78125 C1271.39372518 122.91887524 1270.10537734 127.05384942 1268.8125 131.1875 C1272.57469352 130.35617257 1275.12617947 128.85516793 1278.375 126.75 C1311.73154268 105.77700792 1349.96642356 92.82149987 1388.625 85.9375 C1389.89259155 85.71078613 1389.89259155 85.71078613 1391.18579102 85.47949219 C1408.6687375 82.55217657 1425.98365022 81.81528752 1443.6875 81.875 C1444.81012238 81.87682281 1445.93274475 81.87864563 1447.08938599 81.88052368 C1464.51713436 81.92809433 1481.56516975 82.5041206 1498.8125 85.1875 C1499.97104492 85.36442383 1501.12958984 85.54134766 1502.32324219 85.72363281 C1527.80052421 89.71804015 1552.26974042 96.3670345 1576.8125 104.1875 C1576.98855051 110.39058568 1576.33561233 116.1283106 1575.28125 122.234375 C1575.12587769 123.16799866 1574.97050537 124.10162231 1574.8104248 125.0635376 C1574.31719896 128.02258311 1573.81544731 130.98009266 1573.3125 133.9375 C1572.81069484 136.9093605 1572.31077913 139.88150809 1571.8145752 142.85430908 C1571.50649467 144.69795974 1571.19502395 146.54104788 1570.87976074 148.38348389 C1570.66954285 149.6356369 1570.66954285 149.6356369 1570.45507812 150.91308594 C1570.33072388 151.64396423 1570.20636963 152.37484253 1570.07824707 153.12786865 C1569.72718951 155.50256826 1569.72718951 155.50256826 1569.8125 159.1875 C1570.32554688 158.68863281 1570.83859375 158.18976563 1571.3671875 157.67578125 C1585.82656094 144.11707585 1602.62065185 133.88681086 1619.8125 124.1875 C1620.54259277 123.77016602 1621.27268555 123.35283203 1622.02490234 122.92285156 C1655.25467113 104.03168446 1692.91656659 92.58716815 1730.5 86.4375 C1731.70954346 86.23866211 1732.91908691 86.03982422 1734.1652832 85.83496094 C1753.55980088 82.81714448 1772.75881082 81.80826188 1792.375 81.875 C1793.51824738 81.87715515 1794.66149475 81.8793103 1795.83938599 81.88153076 C1850.73564109 82.04739061 1909.57686781 93.03183777 1954.8125 126.1875 C1955.864375 126.95578125 1956.91625 127.7240625 1958 128.515625 C1965.72709427 134.26440039 1972.84272345 140.54961757 1979.8125 147.1875 C1980.53050781 147.85265625 1981.24851562 148.5178125 1981.98828125 149.203125 C2006.24964516 172.34622965 2021.66725036 206.26531071 2025.8125 239.1875 C2025.9038623 239.85587891 2025.99522461 240.52425781 2026.08935547 241.21289062 C2032.63094784 292.75270934 2015.02588858 346.04883543 1983.875 386.875 C1977.86225708 394.51880801 1971.69318747 402.30681253 1964.8125 409.1875 C1965.24820313 409.57679688 1965.68390625 409.96609375 1966.1328125 410.3671875 C1975.3431229 419.01929727 1981.19566027 430.10743615 1981.97265625 442.8046875 C1982.43346743 458.23184424 1977.3048409 470.94570618 1966.8125 482.1875 C1970.7725 482.6825 1970.7725 482.6825 1974.8125 483.1875 C1971.05156073 504.63163104 1967.04302136 526.02524179 1962.97930908 547.41369629 C1962.16674502 551.69225532 1961.35591976 555.97114387 1960.54492188 560.25 C1958.96909164 568.56281243 1957.39142779 576.87527536 1955.8125 585.1875 C1953.8325 585.1875 1951.8525 585.1875 1949.8125 585.1875 C1949.72162109 586.21810547 1949.72162109 586.21810547 1949.62890625 587.26953125 C1949.54511719 588.17058594 1949.46132812 589.07164062 1949.375 590 C1949.29378906 590.89332031 1949.21257813 591.78664063 1949.12890625 592.70703125 C1948.8125 595.1875 1948.8125 595.1875 1947.8125 598.1875 C1950.1225 598.1875 1952.4325 598.1875 1954.8125 598.1875 C1951.50591813 617.78700785 1947.81265212 637.3103991 1944.10626221 656.83721924 C1943.45722844 660.25968914 1942.81036716 663.68256826 1942.16350269 667.10544872 C1941.53729222 670.41783937 1940.90992005 673.73000912 1940.28217125 677.04210854 C1939.98403119 678.61570588 1939.68620718 680.18936313 1939.38871193 681.7630825 C1938.9761989 683.94408279 1938.56216546 686.12478897 1938.14770508 688.30541992 C1937.91328201 689.54176682 1937.67885895 690.77811371 1937.43733215 692.05192566 C1936.96059924 694.44429855 1936.40414389 696.82092445 1935.8125 699.1875 C1808.7625 699.1875 1681.7125 699.1875 1550.8125 699.1875 C1548.5625 685.6875 1548.5625 685.6875 1548.8125 680.1875 C1544.68950011 680.15134894 1544.68950011 680.15134894 1540.8125 681.1875 C1538.66989512 683.73911351 1537.57400095 686.60150586 1536.375 689.6875 C1535.71037967 691.26073129 1535.04505252 692.83366422 1534.37890625 694.40625 C1534.09990479 695.10685547 1533.82090332 695.80746094 1533.53344727 696.52929688 C1532.8125 698.1875 1532.8125 698.1875 1531.8125 699.1875 C1530.22320489 699.29129081 1528.62931771 699.3254653 1527.03665161 699.33226013 C1526.00255157 699.33915863 1524.96845154 699.34605713 1523.90301514 699.35316467 C1522.75826721 699.35577805 1521.61351929 699.35839142 1520.43408203 699.36108398 C1519.23550568 699.367771 1518.03692932 699.37445801 1516.80203247 699.38134766 C1514.18561539 699.39544437 1511.5692551 699.40776495 1508.95282364 699.41729546 C1504.79727271 699.43276349 1500.64179769 699.45672342 1496.48629761 699.48219299 C1484.66555614 699.55331905 1472.84476786 699.61270194 1461.02392578 699.66430664 C1454.50178884 699.69285545 1447.97972414 699.72838264 1441.45766342 699.77096039 C1438.01360422 699.79310052 1434.56961062 699.81171723 1431.1254921 699.82140923 C1417.57913891 699.8646245 1404.2076108 699.99907706 1390.75973511 701.73890686 C1371.44861827 703.93356573 1351.75373673 700.86779211 1332.8125 697.1875 C1332.8125 697.8475 1332.8125 698.5075 1332.8125 699.1875 C1224.5725 699.1875 1116.3325 699.1875 1004.8125 699.1875 C1005.4725 695.2275 1006.1325 691.2675 1006.8125 687.1875 C1005.93851563 687.56261719 1005.06453125 687.93773437 1004.1640625 688.32421875 C964.53936977 704.9694341 916.25738543 708.3225978 875.8125 692.3125 C868.89691706 689.37815321 862.33430881 685.90482104 855.8125 682.1875 C855.76351563 682.82816406 855.71453125 683.46882812 855.6640625 684.12890625 C855.55191406 685.42634766 855.55191406 685.42634766 855.4375 686.75 C855.33308594 688.02037109 855.33308594 688.02037109 855.2265625 689.31640625 C854.8125 692.1875 854.8125 692.1875 852.8125 699.1875 C775.5925 699.1875 698.3725 699.1875 618.8125 699.1875 C619.4725 695.5575 620.1325 691.9275 620.8125 688.1875 C620.8125 686.5375 620.8125 684.8875 620.8125 683.1875 C620.17441406 684.25871094 619.53632812 685.32992187 618.87890625 686.43359375 C618.04434812 687.83077534 617.20970849 689.22790824 616.375 690.625 C615.95412109 691.33205078 615.53324219 692.03910156 615.09960938 692.76757812 C611.92578125 698.07421875 611.92578125 698.07421875 610.8125 699.1875 C608.71901553 699.28588719 606.6221365 699.31197114 604.52634138 699.3116985 C603.85771864 699.31297658 603.18909589 699.31425467 602.50021185 699.31557148 C600.22717099 699.3186694 597.95419772 699.31455001 595.68115902 699.31054783 C594.041077 699.31128654 592.40099513 699.31246414 590.7609137 699.31404433 C586.21181981 699.31713436 581.66274801 699.31392095 577.11365575 699.30976619 C572.18063002 699.30634977 567.24760667 699.30869938 562.3145805 699.31034368 C553.65489232 699.31242366 544.99521099 699.31076306 536.33552361 699.30670547 C523.45873581 699.30068861 510.58195236 699.30036798 497.70516342 699.30124746 C476.047937 699.30256368 454.39071362 699.29921117 432.73348808 699.29323006 C411.27922997 699.28731196 389.82497311 699.28345584 368.37071419 699.28237724 C367.70496118 699.28234283 367.03920817 699.28230842 366.35328082 699.28227296 C360.27284638 699.28195977 354.19241193 699.28167208 348.11197749 699.28141499 C332.9952325 699.28077551 317.87848754 699.27981614 302.76174259 699.27863979 C301.72905284 699.27855982 301.72905284 699.27855982 300.67550066 699.27847823 C267.16818812 699.27585533 233.66087641 699.26954721 200.15356445 699.26293945 C188.5226237 699.26064784 176.89168295 699.25837249 165.26074219 699.25616455 C164.17874598 699.25595913 164.17874598 699.25595913 163.07489127 699.25574955 C129.55563955 699.24940802 96.0363877 699.2456807 62.51713554 699.24262976 C60.34162073 699.24243169 58.16610592 699.2422325 55.9905911 699.24203308 C41.5736034 699.24071332 27.15661569 699.23943867 12.73962798 699.23819422 C-15.94774575 699.23571758 -44.63511946 699.23297589 -73.32249315 699.23005217 C-74.68872765 699.22991293 -76.05496215 699.22977388 -77.42119665 699.22963501 C-119.51196354 699.22535571 -161.60273013 699.21987963 -203.6934967 699.21315002 C-205.45753781 699.21286869 -205.45753781 699.21286869 -207.25721611 699.21258167 C-254.9006442 699.20496501 -302.54407207 699.19607202 -350.1875 699.1875 C-350.1875 627.9075 -350.1875 556.6275 -350.1875 483.1875 C-298.3775 482.8575 -246.5675 482.5275 -193.1875 482.1875 C-201.7675 479.2175 -210.3475 476.2475 -219.1875 473.1875 C-225.94628579 470.3080173 -232.60091504 467.41349569 -239.1875 464.1875 C-240.28215576 463.65455322 -240.28215576 463.65455322 -241.39892578 463.11083984 C-263.70646276 452.12039529 -283.25727552 437.29933249 -301.1875 420.1875 C-302.16783203 419.28644531 -302.16783203 419.28644531 -303.16796875 418.3671875 C-335.86974264 387.45197133 -354.49788983 339.57816711 -356.1875 295.1875 C-356.21473145 294.53475098 -356.24196289 293.88200195 -356.27001953 293.20947266 C-358.41042381 234.55701068 -334.38234491 179.19742853 -298.1875 134.1875 C-296.97513672 132.66576172 -296.97513672 132.66576172 -295.73828125 131.11328125 C-289.02743456 122.90261438 -281.59650557 115.38593796 -274.125 107.875 C-273.36494659 107.10704605 -273.36494659 107.10704605 -272.58953857 106.32357788 C-265.79445584 99.47397298 -258.7735405 93.16998722 -251.1875 87.1875 C-249.75118137 86.02619095 -248.31497511 84.8647429 -246.87890625 83.703125 C-236.09639336 75.1245727 -224.90092209 67.43740566 -213.1875 60.1875 C-212.11532227 59.52306885 -212.11532227 59.52306885 -211.02148438 58.84521484 C-206.13956433 55.84530033 -201.19131083 52.97892144 -196.1875 50.1875 C-195.36008301 49.72520996 -194.53266602 49.26291992 -193.68017578 48.78662109 C-134.823324 16.24531205 -67.08624619 -0.09213152 0 0 Z M-85.1875 227.1875 C-94.55862654 238.4895392 -100.23587824 250.38923798 -99.1875 265.1875 C-97.5925307 274.85301394 -91.09123671 282.33569248 -83.375 288 C-70.85648167 296.09239576 -56.11082062 300.64094526 -41.1875 301.1875 C-40.25421875 301.22746094 -39.3209375 301.26742187 -38.359375 301.30859375 C-5.42123232 302.01204655 25.09769576 291.46372496 53.51660156 275.46801758 C55.37511367 274.43144846 57.28146949 273.48097142 59.19921875 272.55859375 C63.40973889 268.73828623 64.49434065 263.81905754 66.1875 258.5 C69.72881509 247.99625404 73.82053085 238.07622364 78.8125 228.1875 C31.66487651 189.32158541 -39.55536845 178.79182725 -85.1875 227.1875 Z M1382.7734375 274.0234375 C1374.00169308 283.70380883 1369.05130237 291.86419798 1369.40234375 305.06640625 C1370.3089109 311.96495057 1374.4954094 316.59549711 1379.8125 320.8125 C1396.22038205 332.09291891 1416.75265036 332.32340303 1435.81420898 329.05664062 C1449.85410998 326.27966812 1462.25844353 321.17210329 1474.9375 314.625 C1475.82687256 314.16601318 1476.71624512 313.70702637 1477.63256836 313.23413086 C1480.06366055 311.94111498 1482.4433045 310.5902196 1484.8125 309.1875 C1485.42859131 308.84589844 1486.04468262 308.50429688 1486.67944336 308.15234375 C1490.49115219 305.63013654 1491.36253461 302.94758789 1492.23828125 298.6953125 C1492.55963781 296.57144979 1492.85446642 294.44343276 1493.125 292.3125 C1493.28033203 291.24902344 1493.43566406 290.18554688 1493.59570312 289.08984375 C1494.02477034 286.12504455 1494.42236043 283.15762887 1494.8125 280.1875 C1495.01200944 278.76790211 1495.21338504 277.348563 1495.41796875 275.9296875 C1495.54816406 275.02476562 1495.67835937 274.11984375 1495.8125 273.1875 C1461.00369166 250.01595598 1415.7526921 242.30775587 1382.7734375 274.0234375 Z M300.8125 263.1875 C299.53632812 263.81591797 299.53632812 263.81591797 298.234375 264.45703125 C286.10279288 271.07599194 276.52722357 281.94665773 271.9375 295 C270.02888719 302.2573002 269.2862109 310.5905591 272.3125 317.625 C277.05105742 325.46756019 285.32571864 328.80288564 293.8125 331.1875 C313.98230406 335.47894767 335.55039782 331.2599662 352.8125 320.1875 C362.62750933 312.96106456 371.71249012 302.58130831 373.8125 290.1875 C374.51751569 282.03575612 375.19374812 273.85833717 369.8125 267.1875 C361.7975209 258.32118892 350.8434346 255.69725865 339.3046875 254.96484375 C325.64788674 254.63696649 313.07652297 257.14209885 300.8125 263.1875 Z M1717.8828125 276.671875 C1710.04242994 286.19867947 1705.03280854 297.05913779 1705.47265625 309.515625 C1706.2682297 315.77047831 1708.46914078 320.47054684 1713.375 324.5 C1726.40546968 333.26816651 1743.6730465 333.907031 1758.8125 331.69140625 C1775.39101405 328.41640961 1791.27361797 320.71796251 1801.49609375 306.9140625 C1806.946957 298.51348023 1810.9925659 288.30235059 1809.8125 278.1875 C1808.48459311 272.15063099 1806.70267444 268.18855182 1801.8125 264.1875 C1801.30847656 263.75695312 1800.80445312 263.32640625 1800.28515625 262.8828125 C1777.10355137 244.4466185 1736.1541977 257.41815726 1717.8828125 276.671875 Z M1143.8125 257.1875 C1143.50327606 258.207939 1143.50327606 258.207939 1143.18780518 259.24899292 C1142.54976428 261.35452788 1141.91172307 263.46006274 1141.27368164 265.56559753 C1140.50300882 268.10881992 1139.73233798 270.6520429 1138.96166992 273.19526672 C1136.97870997 279.73907344 1134.99572734 286.28287329 1133.01266098 292.82664776 C1131.84176105 296.6904175 1130.67087663 300.55419195 1129.5 304.41796875 C1129.26247261 305.20178484 1129.02494522 305.98560093 1128.78022003 306.79316902 C1125.67752592 317.03183844 1122.57550072 327.27071018 1119.47425079 337.50981712 C1110.20042462 368.12793662 1100.91498907 398.74251357 1091.61650085 429.35315323 C1090.81983714 431.97584544 1090.0232525 434.59856166 1089.22668457 437.22128296 C1087.96996826 441.35895614 1086.71298297 445.49654751 1085.45578766 449.63407516 C1084.99428204 451.15302676 1084.53284819 452.67200016 1084.07149506 454.19099808 C1083.63913681 455.61446985 1083.2066615 457.03790606 1082.7740593 458.46130371 C1082.3662317 459.80327442 1081.95869259 461.14533285 1081.55147171 462.48748779 C1080.58570484 465.66606175 1079.61079562 468.84145078 1078.61767578 472.01156616 C1078.25013184 473.18812775 1077.88258789 474.36468933 1077.50390625 475.5769043 C1077.01386108 477.13226143 1077.01386108 477.13226143 1076.51391602 478.71903992 C1075.72138973 481.08044337 1075.72138973 481.08044337 1075.8125 483.1875 C1108.1525 483.1875 1140.4925 483.1875 1173.8125 483.1875 C1172.36875 490.74398437 1170.925 498.30046875 1169.4375 506.0859375 C1168.52583952 510.86194078 1167.61428695 515.63796415 1166.703125 520.4140625 C1165.25561711 528.00150494 1163.80770165 535.58886807 1162.35742188 543.17578125 C1161.18872715 549.28976104 1160.021808 555.40407722 1158.85614014 561.5186348 C1158.41021475 563.85603634 1157.96364035 566.19331416 1157.51641846 568.53046799 C1156.89205993 571.79391651 1156.26997213 575.05779001 1155.6484375 578.32177734 C1155.46142273 579.29641434 1155.27440796 580.27105133 1155.08172607 581.27522278 C1154.91344299 582.16145828 1154.74515991 583.04769379 1154.57177734 583.96078491 C1154.42429047 584.73324743 1154.27680359 585.50570995 1154.12484741 586.30158043 C1153.75803502 588.19775188 1153.75803502 588.19775188 1153.8125 590.1875 C1157.4425 590.1875 1161.0725 590.1875 1164.8125 590.1875 C1164.9745694 589.3417894 1165.13663879 588.4960788 1165.30361938 587.6247406 C1166.86137934 579.49631391 1168.41942045 571.36794116 1169.97774696 563.23962307 C1170.77811571 559.0648058 1171.57839044 554.88997056 1172.37841797 550.71508789 C1173.15252762 546.67546285 1173.92695598 542.635899 1174.70153046 538.59636307 C1175.00990976 536.98772181 1175.31816271 535.37905633 1175.62628937 533.77036667 C1177.27389523 525.16844236 1178.92982629 516.56832235 1180.61230469 507.97314453 C1180.89573252 506.52198388 1181.17912967 505.07081724 1181.4624939 503.61964417 C1181.99001186 500.91845136 1182.52114179 498.2180033 1183.05435181 495.51792908 C1183.28697723 494.32744461 1183.51960266 493.13696014 1183.75927734 491.91040039 C1184.06591812 490.35283775 1184.06591812 490.35283775 1184.37875366 488.7638092 C1184.89551153 486.12986686 1184.89551153 486.12986686 1184.8125 483.1875 C1211.8725 483.1875 1238.9325 483.1875 1266.8125 483.1875 C1264.37241715 481.5607781 1262.20721149 480.38745517 1259.55859375 479.19140625 C1225.66220558 463.64008571 1197.03509439 441.86850799 1176.8125 410.1875 C1176.43996094 409.60774414 1176.06742188 409.02798828 1175.68359375 408.43066406 C1153.38974433 373.20062342 1148.07119874 328.61208432 1155.8125 288.1875 C1157.32562549 281.55766295 1159.18250136 275.03576185 1161.13330078 268.5234375 C1162.12836333 265.10116632 1162.97461113 261.65130854 1163.8125 258.1875 C1159.72246141 257.03767398 1155.78072949 257.07655744 1151.5625 257.125 C1150.81742188 257.12951172 1150.07234375 257.13402344 1149.3046875 257.13867188 C1147.4739236 257.15040754 1145.64320127 257.1683415 1143.8125 257.1875 Z M881.8125 259.1875 C884.8452301 263.27579383 887.89192577 267.30641766 891.1875 271.1875 C901.5028241 284.453327 906.56105008 300.74599071 908.8125 317.1875 C910.6893647 314.37220295 911.52173328 312.32817125 912.50830078 309.13696289 C912.82848175 308.10902115 913.14866272 307.08107941 913.47854614 306.02198792 C913.81820404 304.91258347 914.15786194 303.80317902 914.5078125 302.66015625 C914.86011932 301.51969345 915.21242615 300.37923065 915.57540894 299.20420837 C916.31915868 296.79159576 917.06039588 294.37820738 917.79931641 291.96411133 C918.93261686 288.26593464 920.07709601 284.57134798 921.22265625 280.87695312 C921.94338692 278.53406281 922.66346108 276.19097041 923.3828125 273.84765625 C923.72651886 272.74027603 924.07022522 271.63289581 924.42434692 270.49195862 C924.73822357 269.46086472 925.05210022 268.42977081 925.37548828 267.36743164 C925.65369415 266.46158829 925.93190002 265.55574493 926.21853638 264.62245178 C926.9704891 261.957549 926.9704891 261.957549 926.8125 258.1875 C911.77841419 258.05211408 896.82447026 258.35460922 881.8125 259.1875 Z M877.8125 416.1875 C876.70841797 417.39986328 876.70841797 417.39986328 875.58203125 418.63671875 C874.59641591 419.71620221 873.61073535 420.79562612 872.625 421.875 C872.14224609 422.40544922 871.65949219 422.93589844 871.16210938 423.48242188 C868.1256909 426.80414141 865.00617049 430.01512064 861.8125 433.1875 C861.25949219 433.78691406 860.70648437 434.38632812 860.13671875 435.00390625 C839.41135517 457.11425833 807.42566494 473.38344925 778.8125 482.1875 C778.8125 482.5175 778.8125 482.8475 778.8125 483.1875 C805.2125 483.1875 831.6125 483.1875 858.8125 483.1875 C860.69432224 478.79658145 862.34114609 474.81645795 863.72949219 470.31567383 C864.24452301 468.65408989 864.24452301 468.65408989 864.7699585 466.9589386 C865.12946594 465.78268417 865.48897339 464.60642975 865.859375 463.39453125 C866.23483459 462.17094406 866.61029419 460.94735687 866.99713135 459.68669128 C867.78669377 457.10981173 868.5727827 454.53190021 869.35693359 451.95336914 C870.36171346 448.65180365 871.3795409 445.35441453 872.40049362 442.05782032 C873.3749016 438.90195319 874.33494552 435.74172013 875.296875 432.58203125 C875.66447937 431.39970413 876.03208374 430.21737701 876.41082764 428.9992218 C876.74157288 427.90095566 877.07231812 426.80268951 877.41308594 425.67114258 C877.70826111 424.70630447 878.00343628 423.74146637 878.30755615 422.74739075 C878.82469468 420.12567719 878.69541496 418.67826043 877.8125 416.1875 Z M83.8125 418.1875 C81.54193054 424.49668768 79.95289506 430.76151776 78.6484375 437.33203125 C78.24555803 439.24457751 77.84054725 441.15667584 77.43359375 443.06835938 C76.80241137 446.04516527 76.18317679 449.02210579 75.59912109 452.00854492 C75.02618995 454.91677771 74.40457162 457.81094989 73.7734375 460.70703125 C73.61056244 461.59872513 73.44768738 462.49041901 73.27987671 463.40913391 C71.90722235 469.42151438 71.90722235 469.42151438 68.78729248 471.60455322 C66.48856737 472.64792893 64.22835419 473.46100347 61.8125 474.1875 C60.5140918 474.66920654 60.5140918 474.66920654 59.18945312 475.16064453 C58.49787109 475.37833496 57.80628906 475.59602539 57.09375 475.8203125 C56.30613281 476.06910156 55.51851562 476.31789063 54.70703125 476.57421875 C53.91683594 476.81785156 53.12664062 477.06148437 52.3125 477.3125 C51.52230469 477.56386719 50.73210937 477.81523438 49.91796875 478.07421875 C44.59582941 479.7379317 39.26953721 481.04152219 33.8125 482.1875 C33.8125 482.5175 33.8125 482.8475 33.8125 483.1875 C80.3425 483.1875 126.8725 483.1875 174.8125 483.1875 C172.71699079 481.09199079 171.3322339 480.44157626 168.62109375 479.33984375 C167.76733154 478.98680176 166.91356934 478.63375977 166.03393555 478.27001953 C165.11523682 477.89216309 164.19653809 477.51430664 163.25 477.125 C142.82344132 468.5127965 124.60696657 457.74609205 107.8125 443.1875 C106.88824219 442.39730469 105.96398437 441.60710937 105.01171875 440.79296875 C99.33638424 435.80840801 94.43085353 430.58972527 89.78515625 424.6328125 C87.91844536 422.31883028 85.95334336 420.24692426 83.8125 418.1875 Z M1518.8125 418.1875 C1518.66375427 418.94060959 1518.51500854 419.69371918 1518.36175537 420.46965027 C1516.94614479 427.58771889 1515.48040315 434.69272117 1513.95812607 441.78867626 C1513.17732606 445.43688639 1512.41612186 449.08694246 1511.69921875 452.74829102 C1511.00571915 456.28628455 1510.26139754 459.81007655 1509.48157501 463.33001137 C1509.19395668 464.67015091 1508.92443621 466.01431473 1508.6740036 467.36189842 C1506.69927743 477.88898406 1506.69927743 477.88898406 1502.03741455 481.09736633 C1498.98048855 482.3934921 1496.02297461 483.35327377 1492.8125 484.1875 C1491.25247362 484.70669789 1489.6944892 485.23217213 1488.140625 485.76953125 C1486.78309548 486.18575492 1485.42375464 486.59612581 1484.0625 487 C1483.35351562 487.21591797 1482.64453125 487.43183594 1481.9140625 487.65429688 C1480.21519792 488.17084354 1478.5141017 488.68004264 1476.8125 489.1875 C1479.50577975 490.98301983 1482.07942753 492.33493212 1484.99609375 493.71875 C1486.51106445 494.43998047 1486.51106445 494.43998047 1488.05664062 495.17578125 C1489.11044922 495.67464844 1490.16425781 496.17351562 1491.25 496.6875 C1493.33215954 497.67681337 1495.41419572 498.66638644 1497.49609375 499.65625 C1498.41962646 500.09388672 1499.34315918 500.53152344 1500.29467773 500.98242188 C1502.47953506 502.02813658 1504.65020406 503.09606443 1506.8125 504.1875 C1508.81978948 501.0671258 1510.81707109 497.94046965 1512.8125 494.8125 C1513.38484375 493.92304687 1513.9571875 493.03359375 1514.546875 492.1171875 C1515.35898438 490.84101562 1515.35898438 490.84101562 1516.1875 489.5390625 C1516.69023438 488.75354004 1517.19296875 487.96801758 1517.7109375 487.15869141 C1518.97510873 485.27287048 1518.97510873 485.27287048 1518.8125 483.1875 C1549.1725 483.1875 1579.5325 483.1875 1610.8125 483.1875 C1608.21564886 481.45626591 1605.98021153 480.33937135 1603.12109375 479.15625 C1585.06037404 471.5694107 1568.39777106 463.10791772 1552.8125 451.1875 C1551.8946875 450.49398437 1550.976875 449.80046875 1550.03125 449.0859375 C1539.29585803 440.65549734 1528.89455865 430.74021243 1520.9140625 419.62890625 C1520.55054688 419.15324219 1520.18703125 418.67757813 1519.8125 418.1875 C1519.4825 418.1875 1519.1525 418.1875 1518.8125 418.1875 Z M449.2131958 465.15286255 C442.79459537 468.89161557 436.09216669 471.64944866 429.1875 474.375 C428.08035645 474.8189209 426.97321289 475.2628418 425.83251953 475.72021484 C419.8830339 478.07501049 413.90315254 480.22751014 407.8125 482.1875 C407.8125 482.5175 407.8125 482.8475 407.8125 483.1875 C435.5325 483.1875 463.2525 483.1875 491.8125 483.1875 C491.8125 485.4975 491.8125 487.8075 491.8125 490.1875 C492.4725 490.5175 493.1325 490.8475 493.8125 491.1875 C496.0138866 487.38322508 496.0138866 487.38322508 496.8125 483.1875 C511.9925 483.1875 527.1725 483.1875 542.8125 483.1875 C539.92931615 481.26537744 537.7690248 480.42633469 534.4921875 479.41015625 C532.87159424 478.89557861 532.87159424 478.89557861 531.21826172 478.37060547 C530.05311035 478.00080566 528.88795898 477.63100586 527.6875 477.25 C518.12495458 474.14534402 508.87041637 470.67079638 499.6875 466.5625 C498.64368164 466.10955566 497.59986328 465.65661133 496.52441406 465.18994141 C491.95705005 463.18218918 487.6157412 461.1521475 483.421875 458.44140625 C470.44728672 450.54219012 461.09027023 458.12930778 449.2131958 465.15286255 Z M1867.55859375 472.83203125 C1866.2756543 473.35313477 1866.2756543 473.35313477 1864.96679688 473.88476562 C1864.07025391 474.25279297 1863.17371094 474.62082031 1862.25 475 C1855.83468792 477.62984995 1849.42217768 480.08703087 1842.8125 482.1875 C1842.8125 482.5175 1842.8125 482.8475 1842.8125 483.1875 C1855.0225 483.1875 1867.2325 483.1875 1879.8125 483.1875 C1877.8325 479.2275 1875.8525 475.2675 1873.8125 471.1875 C1871.36337336 471.1875 1869.82680352 471.90116119 1867.55859375 472.83203125 Z M1636.8125 491.1875 C1638.21178023 499.26027053 1639.91204928 507.21827664 1641.8125 515.1875 C1644.53778885 512.46221115 1644.75438491 509.53105983 1645.4375 505.875 C1645.5715625 505.21048828 1645.705625 504.54597656 1645.84375 503.86132812 C1646.5584816 500.17462584 1646.8125 496.97994068 1646.8125 493.1875 C1643.5125 492.5275 1640.2125 491.8675 1636.8125 491.1875 Z M1030.8125 495.1875 C1034.07059569 498.44559569 1036.76516218 500.05344915 1040.8125 502.1875 C1041.4725 502.1875 1042.1325 502.1875 1042.8125 502.1875 C1043.1425 499.8775 1043.4725 497.5675 1043.8125 495.1875 C1039.5225 495.1875 1035.2325 495.1875 1030.8125 495.1875 Z M1778.75 496.8125 C1777.71166016 496.98652344 1777.71166016 496.98652344 1776.65234375 497.1640625 C1773.76066856 498.7725952 1773.70765052 501.0634459 1772.8125 504.1875 C1772.20644992 506.97286562 1771.64096245 509.74748072 1771.11669922 512.54785156 C1770.96035004 513.36481506 1770.80400085 514.18177856 1770.64291382 515.02349854 C1770.13031319 517.70762517 1769.62364198 520.39283248 1769.1171875 523.078125 C1768.76163055 524.94811777 1768.40576049 526.81805103 1768.04959106 528.68792725 C1767.30573919 532.59778789 1766.56463891 536.50815633 1765.82568359 540.41894531 C1764.8770112 545.43921593 1763.92307538 550.45846794 1762.96729851 555.47739029 C1762.23317898 559.33399939 1761.50101533 563.19097759 1760.76953506 567.04808807 C1760.41828277 568.8997973 1760.06660657 570.75142616 1759.71450424 572.60297394 C1759.22430046 575.18320799 1758.73653516 577.76389059 1758.24951172 580.34472656 C1758.10304199 581.11357178 1757.95657227 581.88241699 1757.80566406 582.67456055 C1757.07233857 586.40525657 1757.07233857 586.40525657 1756.8125 590.1875 C1760.4425 590.1875 1764.0725 590.1875 1767.8125 590.1875 C1774.01109567 558.8897279 1780.15917706 527.58895158 1785.8125 496.1875 C1783.30279035 496.1875 1781.19823079 496.3457345 1778.75 496.8125 Z M621.8125 680.1875 C622.8125 682.1875 622.8125 682.1875 622.8125 682.1875 Z " fill="#FEFDFE" transform="translate(467.1875,104.8125)"/>
<path d="M0 0 C34.23651782 -0.49408041 69.02957032 0.95431521 101.70849609 12.22314453 C104.27385358 13.10758995 106.85124748 13.95042408 109.4296875 14.79589844 C134.54086936 23.25722632 157.72407782 36.03139249 176.68115234 54.64501953 C178.03541133 55.96639263 179.4191055 57.25740832 180.8046875 58.54589844 C204.63811958 81.19321881 217.33164463 113.58647088 218.3203125 146.10058594 C218.49245053 155.94519744 217.84825579 165.34770089 216.12890625 175.05761719 C215.88914062 176.90033203 215.88914062 176.90033203 215.64453125 178.78027344 C209.24962537 225.45156397 178.98623983 269.73207379 142.12890625 298.05761719 C141.58427734 298.47865723 141.03964844 298.89969727 140.47851562 299.33349609 C95.91772898 333.57928583 41.40306383 352.74571305 -14.17529297 358.76513672 C-15.94876314 358.95754908 -17.72129988 359.15880581 -19.49267578 359.36962891 C-83.69217625 366.99836624 -157.65733089 357.87073852 -209.87109375 317.05761719 C-235.77313528 296.47887246 -255.94941181 267.57587965 -260.43359375 234.10058594 C-265.35746966 185.78000859 -251.32212166 138.83296176 -221.0546875 100.91699219 C-216.5557558 95.40853752 -211.82131003 90.16550459 -206.87109375 85.05761719 C-206.3390332 84.49977539 -205.80697266 83.94193359 -205.25878906 83.3671875 C-197.03267386 74.76133242 -188.44736352 67.12396674 -178.87109375 60.05761719 C-178.29891113 59.6299707 -177.72672852 59.20232422 -177.13720703 58.76171875 C-145.97614943 35.53816045 -110.25636888 20.12507808 -72.87109375 10.05761719 C-72.10780762 9.84556641 -71.34452148 9.63351563 -70.55810547 9.41503906 C-47.71914727 3.12295267 -23.61865624 0.35153903 0 0 Z M-61.80078125 165.54199219 C-69.64116381 175.06879666 -74.65078521 185.92925497 -74.2109375 198.38574219 C-73.41536405 204.6405955 -71.21445297 209.34066403 -66.30859375 213.37011719 C-53.27812407 222.1382837 -36.01054725 222.77714819 -20.87109375 220.56152344 C-4.2925797 217.2865268 11.59002422 209.58807969 21.8125 195.78417969 C27.26336325 187.38359742 31.30897215 177.17246777 30.12890625 167.05761719 C28.80099936 161.02074818 27.01908069 157.05866901 22.12890625 153.05761719 C21.62488281 152.62707031 21.12085937 152.19652344 20.6015625 151.75292969 C-2.58004238 133.31673569 -43.52939605 146.28827445 -61.80078125 165.54199219 Z " fill="#E31837" transform="translate(2246.87109375,215.9423828125)"/>
<path d="M0 0 C0.78119202 0.00093658 1.56238403 0.00187317 2.36724854 0.00283813 C32.82830716 0.08137593 63.5289468 3.11069892 92.4375 13.1875 C93.22092773 13.45288574 94.00435547 13.71827148 94.81152344 13.99169922 C122.10347738 23.28340434 145.3055063 36.52009993 166.4375 56.1875 C167.11554688 56.81140625 167.79359375 57.4353125 168.4921875 58.078125 C185.04324609 73.89801233 196.3391902 94.96985061 202.25 116.9375 C202.4572168 117.70553955 202.66443359 118.4735791 202.87792969 119.26489258 C208.38892474 140.9812799 207.45591422 167.72500696 201.4375 189.1875 C201.21787598 190.00959961 200.99825195 190.83169922 200.77197266 191.67871094 C192.59592765 222.05679749 178.38417463 248.71366766 157.4375 272.1875 C156.96779785 272.71891602 156.4980957 273.25033203 156.01416016 273.79785156 C150.49780708 280.02326196 144.86254476 285.88447592 138.4375 291.1875 C137.591875 291.92097656 136.74625 292.65445312 135.875 293.41015625 C74.20562727 346.28158857 -12.85629433 366.22415938 -92.60473633 360.56811523 C-96.70458574 360.24141287 -100.79730757 359.86179631 -104.88964844 359.45214844 C-107.24038832 359.21939341 -109.59117822 359.01475103 -111.9453125 358.8203125 C-152.28788392 355.17454661 -195.93717642 340.43178785 -226.5625 313.1875 C-227.39910156 312.47078125 -228.23570312 311.7540625 -229.09765625 311.015625 C-251.60662225 291.39420796 -266.96203609 265.7665391 -271.5625 236.1875 C-271.76617188 235.06214844 -271.96984375 233.93679688 -272.1796875 232.77734375 C-279.29211592 190.34634957 -264.59333719 144.75273708 -240.15185547 110.19287109 C-237.53712683 106.63814054 -234.78829709 103.2118007 -231.94677734 99.83642578 C-230.53498588 98.15472569 -229.15175926 96.45213882 -227.76953125 94.74609375 C-190.04584641 48.79225438 -133.13453066 22.20980286 -76.5625 8.1875 C-74.70044922 7.71376953 -74.70044922 7.71376953 -72.80078125 7.23046875 C-64.87024817 5.36972887 -56.80304923 4.25414728 -48.75 3.0625 C-47.61127441 2.89145752 -46.47254883 2.72041504 -45.29931641 2.54418945 C-30.25078174 0.40521937 -15.17998465 -0.02389166 0 0 Z M-55.5625 152.1875 C-56.83867188 152.81591797 -56.83867188 152.81591797 -58.140625 153.45703125 C-70.27220712 160.07599194 -79.84777643 170.94665773 -84.4375 184 C-86.34611281 191.2573002 -87.0887891 199.5905591 -84.0625 206.625 C-79.32394258 214.46756019 -71.04928136 217.80288564 -62.5625 220.1875 C-42.39269594 224.47894767 -20.82460218 220.2599662 -3.5625 209.1875 C6.25250933 201.96106456 15.33749012 191.58130831 17.4375 179.1875 C18.14251569 171.03575612 18.81874812 162.85833717 13.4375 156.1875 C5.4225209 147.32118892 -5.5315654 144.69725865 -17.0703125 143.96484375 C-30.72711326 143.63696649 -43.29847703 146.14209885 -55.5625 152.1875 Z " fill="#E31837" transform="translate(823.5625,215.8125)"/>
<path d="M0 0 C0.33 0.33 0.66 0.66 1 1 C0.99868221 11.82955875 -1.55893864 22.7498341 -3.4375 33.375 C-3.91132729 36.07452703 -4.38355891 38.77431688 -4.85353088 41.47451782 C-5.14380737 43.14029589 -5.43632898 44.80568535 -5.73179626 46.47055054 C-6.56066063 51.20411954 -7.2852868 55.94336956 -7.9519043 60.70263672 C-8.98715444 68.05016651 -10.20518483 75.35922546 -11.4609375 82.671875 C-11.69534165 84.04685744 -11.92951771 85.42187879 -12.16348267 86.79693604 C-13.02057831 91.83148873 -13.88143962 96.86539558 -14.74273682 101.89923096 C-15.46912605 106.14517064 -16.19407144 110.39135156 -16.91657257 114.63795471 C-17.15383674 116.03177458 -17.39152062 117.42552306 -17.62963104 118.81919861 C-18.87880081 126.13778522 -20.08545237 133.45818813 -21.17285156 140.80273438 C-21.3523233 142.01286194 -21.53179504 143.2229895 -21.71670532 144.4697876 C-22.04841577 146.73602892 -22.37268975 149.0033754 -22.68832397 151.27191162 C-22.83323273 152.26660461 -22.97814148 153.26129761 -23.12744141 154.28613281 C-23.2487442 155.15328918 -23.370047 156.02044556 -23.49502563 156.91387939 C-24 159 -24 159 -26 161 C-26.44690186 160.64808594 -26.89380371 160.29617188 -27.35424805 159.93359375 C-64.01401613 131.18009844 -103.20299956 115.82186865 -150.3125 120.625 C-182.27870719 125.44182574 -215.28156955 141.18211883 -235.40234375 167.09375 C-248.63891841 185.23679797 -254.41628786 204.12275106 -251.5625 226.41796875 C-248.9192451 238.92386848 -241.97018285 249.13997729 -233 258 C-232.11441406 258.91845703 -232.11441406 258.91845703 -231.2109375 259.85546875 C-217.31378377 273.23224448 -196.80731595 280.0587623 -178 282 C-176.74316406 282.16435547 -176.74316406 282.16435547 -175.4609375 282.33203125 C-129.17030473 287.70633072 -80.66108277 271.63124735 -43 245 C-42.34 245.33 -41.68 245.66 -41 246 C-41.31638428 247.24197144 -41.31638428 247.24197144 -41.63916016 248.5090332 C-45.59453108 264.07619708 -49.43646127 279.64571782 -52.85229492 295.34204102 C-54.42174324 302.51309827 -56.12366785 309.63703786 -57.9375 316.75 C-60.5422848 326.97308012 -62.87874296 337.24436809 -65.17016602 347.54174805 C-67.96287775 360.03389773 -70.99730467 372.4648772 -74.06762695 384.89135742 C-74.25526108 385.65396881 -74.4428952 386.4165802 -74.63621521 387.20230103 C-74.98655276 388.6255467 -75.33875715 390.04833478 -75.69325256 391.47055054 C-76.63407621 395.29527563 -77.40460058 399.10656951 -78 403 C-100.67116668 410.93139887 -125.15078425 413.81860392 -148.9375 416.3125 C-149.70653656 416.39372101 -150.47557312 416.47494202 -151.26791382 416.55862427 C-172.28843117 418.74346369 -193.24855842 419.21307465 -214.36816406 419.24023438 C-217.28235393 419.24461832 -220.19624764 419.25853973 -223.11035156 419.28125 C-240.6147635 419.41474154 -257.69281804 418.96538728 -275 416 C-276.18770996 415.80647949 -277.37541992 415.61295898 -278.59912109 415.41357422 C-281.35234751 414.9344975 -284.08038131 414.39909891 -286.8125 413.8125 C-287.78638672 413.60455811 -288.76027344 413.39661621 -289.76367188 413.18237305 C-342.7739601 401.39340459 -395.37151964 374.37513582 -426 328 C-434.34039377 314.86715902 -440.69427477 300.86078427 -445.25 286 C-445.48420654 285.24235352 -445.71841309 284.48470703 -445.9597168 283.70410156 C-449.97773681 269.96013923 -451.49656016 256.83628594 -451.39111328 242.58203125 C-451.3750129 240.00206672 -451.39107112 237.42366791 -451.41015625 234.84375 C-451.42336825 224.1931011 -450.34879712 214.39429246 -448 204 C-447.69146313 202.4742096 -447.38389968 200.94822135 -447.078125 199.421875 C-439.00654853 163.63280951 -421.24088305 132.13157322 -398 104 C-397.56703613 103.47535156 -397.13407227 102.95070313 -396.68798828 102.41015625 C-387.01882504 90.75196569 -376.69234402 79.66488369 -365 70 C-364.46600586 69.55221191 -363.93201172 69.10442383 -363.38183594 68.64306641 C-353.29640604 60.19901192 -342.90882713 52.34900186 -332 45 C-331.29633301 44.52240234 -330.59266602 44.04480469 -329.86767578 43.55273438 C-295.59361436 20.4901062 -256.08600881 3.66608267 -216 -6 C-214.95038086 -6.25378418 -213.90076172 -6.50756836 -212.81933594 -6.76904297 C-204.58427308 -8.72326907 -196.31456859 -10.42101241 -188 -12 C-186.91992676 -12.21462891 -185.83985352 -12.42925781 -184.72705078 -12.65039062 C-126.70254248 -23.72611861 -55.99408685 -18.41748111 0 0 Z " fill="#E31837" transform="translate(592,151)"/>
<path d="M0 0 C0.68384766 0.18191895 1.36769531 0.36383789 2.07226562 0.55126953 C22.15664235 6.10874173 39.13938963 16.84004918 50 35 C53.13193417 41.09169395 55.14846996 47.20488241 56.63671875 53.8828125 C56.89541748 55.03410645 57.15411621 56.18540039 57.4206543 57.37158203 C57.61183838 58.23895996 57.80302246 59.10633789 58 60 C58.12083954 59.38327423 58.24167908 58.76654846 58.36618042 58.13113403 C59.63141985 51.67396556 60.89693193 45.21685056 62.16259766 38.75976562 C62.63402084 36.35450571 63.10537605 33.94923248 63.57666016 31.54394531 C64.25665414 28.07353205 64.93689793 24.60316783 65.6171875 21.1328125 C65.82560272 20.06886261 66.03401794 19.00491272 66.24874878 17.90872192 C66.44880524 16.88841888 66.64886169 15.86811584 66.85498047 14.81689453 C67.02818817 13.93309113 67.20139587 13.04928772 67.37985229 12.13870239 C68.24547558 7.7575947 69.12418372 3.37908142 70 -1 C92.77 -1 115.54 -1 139 -1 C136.05995776 15.17023233 133.11124621 31.33831834 130.125 47.5 C129.79934052 49.26286346 129.79934052 49.26286346 129.46710205 51.06134033 C126.13534187 69.07587999 122.66708478 87.05058502 119 105 C137.81 105 156.62 105 176 105 C173.71850045 122.11124659 170.29492118 139.05469108 167 156 C125.42 156 83.84 156 41 156 C42.12455562 142.50533259 42.12455562 142.50533259 43.48828125 135.91015625 C43.70328781 134.85408173 43.70328781 134.85408173 43.92263794 133.77667236 C44.37975114 131.53729591 44.84608386 129.29995515 45.3125 127.0625 C45.78958605 124.73516952 46.26423913 122.40735074 46.73884583 120.07951355 C47.0519886 118.54468988 47.3659351 117.01002996 47.68070984 115.47554016 C48.98779334 109.09813561 50.2316268 102.70983673 51.4375 96.3125 C51.60096924 95.4469751 51.76443848 94.5814502 51.93286133 93.68969727 C52.29006893 91.79341246 52.6453214 89.89675945 53 88 C52.75507812 88.76441406 52.51015625 89.52882813 52.2578125 90.31640625 C43.59147038 115.14995901 24.0909554 133.23126057 0.875 144.6875 C-20.81091384 154.52167571 -41.57118366 158.22574148 -65.1875 158.375 C-65.94845978 158.38312714 -66.70941956 158.39125427 -67.49343872 158.39962769 C-93.4023189 158.60666969 -119.66081099 152.04615495 -138.66796875 133.5234375 C-147.55153583 123.91073342 -152.00341117 113.33981489 -154.640625 100.578125 C-154.89875977 99.3396582 -155.15689453 98.10119141 -155.42285156 96.82519531 C-155.61331055 95.89288086 -155.80376953 94.96056641 -156 94 C-156.22139648 95.16756836 -156.44279297 96.33513672 -156.67089844 97.53808594 C-157.51234952 101.97414792 -158.3551212 106.40995825 -159.19824219 110.84570312 C-159.55926557 112.74602799 -159.919956 114.64641615 -160.28027344 116.546875 C-160.80570881 119.31788615 -161.33244358 122.08864799 -161.859375 124.859375 C-162.09089264 126.08258453 -162.09089264 126.08258453 -162.3270874 127.33050537 C-164.14995236 136.90140765 -166.08895838 146.44479188 -168 156 C-189.78 156 -211.56 156 -234 156 C-231.69792127 138.73440951 -231.69792127 138.73440951 -230.30859375 131.546875 C-230.08333763 130.35750336 -230.08333763 130.35750336 -229.85353088 129.144104 C-229.54206727 127.50406624 -229.22867962 125.86439266 -228.91333008 124.22509766 C-228.43022534 121.7121598 -227.9539438 119.19799417 -227.47851562 116.68359375 C-227.17226513 115.07544649 -226.86563899 113.46737071 -226.55859375 111.859375 C-226.41691269 111.11258484 -226.27523163 110.36579468 -226.1292572 109.59637451 C-225.56103666 106.65297714 -224.94929031 103.84787092 -224 101 C-237.86 101 -251.72 101 -266 101 C-266.33 103.64 -266.66 106.28 -267 109 C-267.22437332 110.38487457 -267.46179407 111.76785338 -267.72436523 113.14599609 C-267.85797958 113.85388275 -267.99159393 114.56176941 -268.1292572 115.29110718 C-268.34177879 116.39611069 -268.34177879 116.39611069 -268.55859375 117.5234375 C-268.78241478 118.70276352 -268.78241478 118.70276352 -269.01075745 119.90591431 C-269.48400291 122.39606079 -269.96074537 124.88552327 -270.4375 127.375 C-270.75347397 129.03641674 -271.06923092 130.69787478 -271.38476562 132.359375 C-272.88590127 140.24760557 -274.42515021 148.12575107 -276 156 C-297.78 156 -319.56 156 -342 156 C-340.75235503 146.01884027 -339.42904311 136.43135974 -337.37283325 126.63977051 C-334.17692725 111.38993314 -331.33724685 96.08116197 -328.5625 80.75 C-325.41289768 63.35566702 -322.05403476 46.02045021 -318.38696289 28.72753906 C-318.22535675 27.9593837 -318.06375061 27.19122833 -317.89724731 26.39979553 C-317.59849983 24.98189038 -317.29633272 23.56469928 -316.98995972 22.14842224 C-316.32281092 18.98047472 -316 16.26526987 -316 13 C-316.32572998 13.55647217 -316.65145996 14.11294434 -316.98706055 14.6862793 C-323.54882341 25.8812213 -330.19332976 37.01398709 -337.05151367 48.0300293 C-341.07545569 54.49542364 -345.04876814 60.9899375 -349 67.5 C-353.99255988 75.72218878 -359.03173025 83.91363851 -364.10546875 92.0859375 C-368.10539206 98.53617702 -372.06050686 105.01270318 -376 111.5 C-401.53359897 153.53359897 -401.53359897 153.53359897 -404 156 C-405.8718094 156.09386381 -407.7471806 156.11743804 -409.62133789 156.11352539 C-410.82250748 156.11344986 -412.02367706 156.11337433 -413.26124573 156.11329651 C-414.5685112 156.10813522 -415.87577667 156.10297394 -417.22265625 156.09765625 C-418.56644132 156.09579198 -419.91022707 156.09436812 -421.25401306 156.09336853 C-424.79682277 156.08954402 -428.3395917 156.07971432 -431.88238525 156.06866455 C-435.49515227 156.05844899 -439.10792584 156.0538706 -442.72070312 156.04882812 C-449.8138188 156.03809198 -456.90690674 156.02101636 -464 156 C-464.05677414 155.03685883 -464.11354828 154.07371765 -464.17204285 153.08139038 C-465.03825996 138.39957954 -465.91221497 123.72535391 -467.0625 109.0625 C-468.07592898 96.05421952 -468.60006564 83.0401361 -469 70 C-471.2570044 70.83989997 -471.2570044 70.83989997 -471.859375 73.4140625 C-472.15328125 74.47367188 -472.4471875 75.53328125 -472.75 76.625 C-477.90131444 93.97336005 -486.21309394 109.83210101 -494.33343506 125.93115234 C-495.65192233 128.5488933 -496.96428236 131.16968403 -498.27650166 133.79057121 C-499.84455811 136.92155146 -501.41636465 140.05064404 -502.98828125 143.1796875 C-503.57676346 144.35240204 -504.16524567 145.52511658 -504.77156067 146.73336792 C-505.31270004 147.80603912 -505.85383942 148.87871033 -506.41137695 149.98388672 C-506.8884761 150.93125702 -507.36557526 151.87862732 -507.85713196 152.85470581 C-509 155 -509 155 -510 156 C-511.84118029 156.09381302 -513.68597641 156.11743954 -515.52954102 156.11352539 C-516.71068985 156.11344986 -517.89183868 156.11337433 -519.10877991 156.11329651 C-520.3941716 156.10813522 -521.67956329 156.10297394 -523.00390625 156.09765625 C-524.9661338 156.09553383 -524.9661338 156.09553383 -526.96800232 156.09336853 C-530.45162859 156.0895441 -533.93521339 156.07971446 -537.41882324 156.06866455 C-540.97126708 156.05844882 -544.52371759 156.05387056 -548.07617188 156.04882812 C-555.05079832 156.03809212 -562.02539717 156.0210166 -569 156 C-569.16113785 155.23689514 -569.3222757 154.47379028 -569.48829651 153.68756104 C-572.45623819 139.6597887 -575.45633578 125.65990228 -578.9375 111.75 C-581.64801607 100.78388313 -584.18779249 89.79357368 -586.5625 78.75 C-588.7384727 68.63144245 -591.03391278 58.55277831 -593.5 48.5 C-596.11613206 37.82006055 -598.57953063 27.11430243 -600.9375 16.375 C-601.0931543 15.67093018 -601.24880859 14.96686035 -601.40917969 14.24145508 C-601.84801182 12.25290927 -602.28154935 10.26319729 -602.71484375 8.2734375 C-602.96355225 7.13310059 -603.21226074 5.99276367 -603.46850586 4.81787109 C-604 2 -604 2 -604 -1 C-580.57 -1 -557.14 -1 -533 -1 C-531.84959652 14.53044694 -530.70600446 30.0166092 -529.9375 45.5625 C-529.78284582 48.66812313 -529.62575458 51.77360079 -529.46484375 54.87890625 C-529.42736526 55.6046283 -529.38988678 56.33035034 -529.35127258 57.07806396 C-529.14535203 60.88525949 -528.86305705 64.66741228 -528.4453125 68.45703125 C-527.90846975 73.35435182 -527.88735225 78.20280522 -527.9375 83.125 C-527.94201172 83.98609375 -527.94652344 84.8471875 -527.95117188 85.734375 C-527.96277506 87.82294785 -527.9807016 89.91148407 -528 92 C-525.55107585 91.06268589 -525.55107585 91.06268589 -524.6875 87.36865234 C-524.29606812 86.16736191 -524.29606812 86.16736191 -523.89672852 84.94180298 C-518.16515781 67.48707915 -509.53011661 51.37084546 -501.22601318 35.04003906 C-498.79238533 30.24620291 -496.37748105 25.44290881 -493.95927429 20.64128113 C-490.32012808 13.42035521 -486.65806335 6.21149989 -483 -1 C-465.18 -1 -447.36 -1 -429 -1 C-428.57847656 4.16527344 -428.15695312 9.33054687 -427.72265625 14.65234375 C-427.45391988 17.93816295 -427.18510613 21.22397546 -426.91601562 24.50976562 C-426.48956369 29.71714267 -426.06338762 34.92454119 -425.63891602 40.13208008 C-425.29641533 44.333754 -424.95262607 48.53532073 -424.60796928 52.73681831 C-424.47715457 54.33421697 -424.34679247 55.93165276 -424.21690559 57.52912712 C-423.57938749 65.36649813 -422.89411921 73.18690222 -422 81 C-421.939951 83.02004839 -421.91192052 85.04172117 -421.9375 87.0625 C-421.94652344 88.00222656 -421.95554687 88.94195313 -421.96484375 89.91015625 C-421.98224609 90.94462891 -421.98224609 90.94462891 -422 92 C-421.34 92 -420.68 92 -420 92 C-419.89115479 91.44747559 -419.78230957 90.89495117 -419.67016602 90.32568359 C-418.53549413 84.86930632 -417.01760305 79.79140068 -414.9375 74.625 C-414.60516357 73.79613281 -414.27282715 72.96726562 -413.93041992 72.11328125 C-409.62042532 61.6844772 -404.56561612 51.59765752 -399.58959961 41.47558594 C-394.18287357 30.47592234 -388.95053555 19.40900054 -383.84692383 8.265625 C-383.35087646 7.18539062 -382.8548291 6.10515625 -382.34375 4.9921875 C-381.91255859 4.04714355 -381.48136719 3.10209961 -381.03710938 2.12841797 C-380 0 -380 0 -379 -1 C-377.29174312 -1.09622036 -375.57947886 -1.12187628 -373.86851501 -1.12025452 C-372.75647202 -1.12162918 -371.64442902 -1.12300385 -370.49868774 -1.12442017 C-369.26798553 -1.12082489 -368.03728333 -1.11722961 -366.76928711 -1.11352539 C-365.48166977 -1.11367142 -364.19405243 -1.11381744 -362.86741638 -1.1139679 C-359.3262524 -1.11425586 -355.78512201 -1.10835936 -352.24396586 -1.10139394 C-348.54705012 -1.09516017 -344.85013369 -1.09455658 -341.1532135 -1.09336853 C-334.14796101 -1.09025528 -327.14272405 -1.08204199 -320.13747841 -1.07201904 C-312.16421124 -1.0608577 -304.19094335 -1.0553474 -296.21767032 -1.05032361 C-279.81177111 -1.03985937 -263.40588753 -1.02226005 -247 -1 C-247.99161747 9.54286086 -247.99161747 9.54286086 -248.84790039 14.08251953 C-249.00799088 14.94265656 -249.16808136 15.80279358 -249.33302307 16.68899536 C-249.58776649 18.02243484 -249.58776649 18.02243484 -249.84765625 19.3828125 C-250.11188637 20.79323318 -250.11188637 20.79323318 -250.38145447 22.23214722 C-250.93785714 25.19719002 -251.50007221 28.16109483 -252.0625 31.125 C-252.44374638 33.15096888 -252.8246093 35.17700996 -253.20507812 37.203125 C-254.13158311 42.13641082 -255.06596239 47.06811121 -256 52 C-242.14 52 -228.28 52 -214 52 C-213.67 48.37 -213.34 44.74 -213 41 C-212.42884287 37.56170972 -211.82572168 34.15533844 -211.15234375 30.73828125 C-210.99608521 29.9237146 -210.83982666 29.10914795 -210.67883301 28.26989746 C-210.10424615 25.28296556 -209.52035919 22.29782869 -208.9375 19.3125 C-207.638125 12.609375 -206.33875 5.90625 -205 -1 C-183.22 -1 -161.44 -1 -139 -1 C-139 4.40024211 -139.31246622 8.36491034 -140.390625 13.53125 C-140.53537766 14.23690598 -140.68013031 14.94256195 -140.82926941 15.66960144 C-141.13804895 17.17276648 -141.44973766 18.67533644 -141.76412964 20.17733765 C-142.58270816 24.09048336 -143.3791808 28.00811193 -144.17578125 31.92578125 C-144.33389786 32.7014595 -144.49201447 33.47713776 -144.65492249 34.27632141 C-146.65530905 44.14589823 -148.3561793 54.06560532 -150 64 C-149.53851562 62.99582031 -149.07703125 61.99164062 -148.6015625 60.95703125 C-135.41025295 32.9891166 -112.56978248 14.88830029 -83.74072266 4.15917969 C-79.20800858 2.58460476 -74.63274329 1.24666752 -70 0 C-69.20980469 -0.22171875 -68.41960938 -0.4434375 -67.60546875 -0.671875 C-45.72072927 -6.19536565 -21.69622477 -5.80569603 0 0 Z " fill="#015DAA" transform="translate(1465,619)"/>
<path d="M0 0 C1.22089828 0.00040787 1.22089828 0.00040787 2.46646118 0.00082397 C14.34076451 0.01904526 25.99967286 0.34150169 37.75 2.1875 C38.84586426 2.34822998 38.84586426 2.34822998 39.96386719 2.51220703 C45.24873824 3.29032671 50.50025251 4.20156611 55.75 5.1875 C56.44319336 5.31318359 57.13638672 5.43886719 57.85058594 5.56835938 C80.91450999 9.83664781 105.81780331 17.56112839 125.75 30.1875 C124.27604788 34.33997063 122.22366321 37.70100851 119.76171875 41.34765625 C119.35475769 41.95387817 118.94779663 42.5601001 118.52850342 43.18469238 C117.63821748 44.51011551 116.74588911 45.83416847 115.85177612 47.15701294 C113.38590913 50.8062492 110.93624648 54.46635234 108.484375 58.125 C107.95569321 58.91306534 107.42701141 59.70113068 106.88230896 60.51307678 C100.58163291 69.91342757 94.35119387 79.36005927 88.12490845 88.80978394 C86.21348681 91.71056235 84.30050077 94.61030482 82.38745117 97.51000977 C81.19437549 99.32039407 80.00141757 101.13085599 78.80859375 102.94140625 C78.26982605 103.75790649 77.73105835 104.57440674 77.17596436 105.41564941 C73.96357268 110.29710434 70.82242246 115.21672382 67.75 120.1875 C64.44059083 118.91809765 61.33744344 117.50036686 58.23046875 115.796875 C34.55860517 102.9908953 10.9787198 94.84000376 -16.25 94.8125 C-17.52617188 94.78800781 -18.80234375 94.76351562 -20.1171875 94.73828125 C-31.84253329 94.70231393 -42.5652724 96.82926591 -51.25 105.1875 C-54.47874607 109.12253427 -54.70677442 112.16298139 -54.25 117.1875 C-52.63045526 121.4162562 -50.49386276 122.46947029 -46.52539062 124.29443359 C-42.76071681 125.77202767 -38.95080645 126.66624308 -35 127.5 C-34.08395996 127.70165771 -33.16791992 127.90331543 -32.22412109 128.11108398 C-21.30541419 130.47067235 -10.3218592 132.54288552 0.65722656 134.60083008 C28.23327223 139.80867839 58.60763684 146.48048994 79.75 166.1875 C80.52472656 166.88359375 81.29945313 167.5796875 82.09765625 168.296875 C95.39406755 180.81636744 102.52358354 197.1528474 103.10620117 215.36865234 C103.38494069 246.97119726 89.14941581 275.56526043 67.75 298.1875 C67.01394531 298.98800781 66.27789063 299.78851562 65.51953125 300.61328125 C53.82013521 312.90058664 39.61851053 322.1878407 24.75 330.1875 C24.0187793 330.58646484 23.28755859 330.98542969 22.53417969 331.39648438 C-1.8499414 344.47859167 -29.94431624 353.13815198 -57.25 357.1875 C-59.08183838 357.47294678 -59.08183838 357.47294678 -60.95068359 357.76416016 C-94.29528929 362.83968815 -127.96184565 362.51256675 -161.375 358.0625 C-162.18616272 357.95556824 -162.99732544 357.84863647 -163.83306885 357.73846436 C-242.64992486 347.21842196 -242.64992486 347.21842196 -267.25 328.1875 C-266.92263351 327.7101239 -266.59526703 327.2327478 -266.25798035 326.74090576 C-257.98232363 314.66918915 -249.74917522 302.56972332 -241.5625 290.4375 C-240.99759857 289.6007373 -240.43269714 288.76397461 -239.85067749 287.90185547 C-226.90243333 268.7180006 -214.06435759 249.46095841 -201.25 230.1875 C-198.54733939 231.4780734 -196.10740278 232.89739814 -193.66015625 234.62109375 C-163.06609371 255.82631329 -127.06329525 271.52395258 -89.0625 265.4609375 C-78.21150002 263.39634227 -67.76753505 260.64843798 -61.25 251.1875 C-59.95241739 248.59233479 -60.11730898 246.64566973 -60.125 243.75 C-60.12242187 242.78191406 -60.11984375 241.81382812 -60.1171875 240.81640625 C-60.13786027 238.07732171 -60.13786027 238.07732171 -61.25 235.1875 C-63.52388865 234.0391757 -63.52388865 234.0391757 -66.25 233.1875 C-67.09143555 232.87345215 -67.93287109 232.5594043 -68.79980469 232.23583984 C-78.50967727 228.98215762 -88.35188811 227.64333631 -98.46405029 226.23751831 C-167.85693736 216.52284894 -167.85693736 216.52284894 -193.25 193.1875 C-194.10078125 192.42824219 -194.9515625 191.66898438 -195.828125 190.88671875 C-207.32959946 180.09117311 -214.71271323 166.07250025 -215.25 150.1875 C-215.30994141 148.65609375 -215.30994141 148.65609375 -215.37109375 147.09375 C-215.86932004 122.47550987 -206.53693788 99.86038668 -192.25 80.1875 C-191.6828125 79.39601563 -191.115625 78.60453125 -190.53125 77.7890625 C-176.1688264 58.82814362 -157.66927631 44.95058741 -137.25 33.1875 C-136.55390625 32.78644043 -135.8578125 32.38538086 -135.140625 31.97216797 C-93.94212408 8.55231403 -46.91997557 -0.05929912 0 0 Z " fill="#E31837" transform="translate(1245.25,215.8125)"/>
<path d="M0 0 C0.76256104 0.00126892 1.52512207 0.00253784 2.31079102 0.00384521 C85.2021318 0.2646318 85.2021318 0.2646318 99.125 14.1875 C99.07572307 21.35729382 97.98883411 28.48759512 96.84375 35.55078125 C96.71373596 36.36342941 96.58372192 37.17607758 96.44976807 38.01335144 C94.99954691 47.04199622 93.50469415 56.06343433 92.01538086 65.08569336 C87.50459467 92.42183315 83.21309495 119.78508144 79.125 147.1875 C75.92664262 145.65096868 73.46654116 143.9196892 70.75 141.625 C45.8643935 121.51247469 15.23822526 110.78830499 -16.875 113.1875 C-44.64905035 116.4538037 -70.32768829 129.03243041 -88.875 150.1875 C-99.08942294 163.81960321 -105.77076963 179.98249641 -103.875 197.1875 C-102.03258499 206.4172481 -98.79767843 214.79612503 -92.875 222.1875 C-92.153125 223.198125 -91.43125 224.20875 -90.6875 225.25 C-79.28934443 238.26619027 -59.76564414 245.93124526 -42.875 247.1875 C-2.67608095 248.92828072 31.62576697 239.01940431 65.125 216.1875 C63.70100668 225.64976741 61.66956907 234.93708349 59.5 244.25 C59.14415833 245.78954601 58.78869776 247.32918016 58.43359375 248.86889648 C57.69767696 252.05875385 56.96014043 255.24823069 56.22167969 258.4375 C55.17195467 262.97697648 54.13455034 267.51918913 53.1015625 272.0625 C49.40776035 288.30266651 45.65749502 304.5282569 41.82617188 320.73657227 C41.66948029 321.40022293 41.5127887 322.0638736 41.35134888 322.74763489 C40.89720697 324.66661936 40.43961084 326.58478532 39.98193359 328.50292969 C39.40657698 330.9767992 38.85773389 333.45697273 38.33447266 335.94238281 C37.96201416 337.69180176 37.96201416 337.69180176 37.58203125 339.4765625 C37.37167236 340.5073291 37.16131348 341.5380957 36.94458008 342.60009766 C36.07089938 345.35829488 35.42792379 346.47998954 33.125 348.1875 C31.31005859 348.93945312 31.31005859 348.93945312 29.2734375 349.46875 C28.11714844 349.77232422 28.11714844 349.77232422 26.9375 350.08203125 C26.133125 350.28183594 25.32875 350.48164062 24.5 350.6875 C23.74976563 350.88730469 22.99953125 351.08710937 22.2265625 351.29296875 C8.51886164 354.80948678 -5.45843428 356.6516802 -19.51391602 358.06787109 C-21.9404177 358.3127945 -24.36570531 358.56779182 -26.79101562 358.82421875 C-89.33800624 365.34584853 -158.47021164 362.26654585 -209.59375 321.0625 C-210.3465625 320.44375 -211.099375 319.825 -211.875 319.1875 C-213.34453125 318.011875 -213.34453125 318.011875 -214.84375 316.8125 C-220.76617843 312.03257642 -226.07900268 307.11910128 -230.875 301.1875 C-231.91720703 299.99253906 -231.91720703 299.99253906 -232.98046875 298.7734375 C-256.52072037 271.30305781 -265.63166099 235.83470582 -263.875 200.1875 C-260.93498642 164.28950812 -244.44116868 128.8991331 -221.875 101.1875 C-221.05644531 100.16398437 -220.23789063 99.14046875 -219.39453125 98.0859375 C-208.65065029 84.87125218 -196.43827722 72.49559068 -182.875 62.1875 C-181.71179175 61.27270457 -180.54906401 60.35729794 -179.38671875 59.44140625 C-168.74671259 51.15993479 -157.48383888 44.02808418 -145.875 37.1875 C-144.91207031 36.61588135 -144.91207031 36.61588135 -143.9296875 36.03271484 C-100.56042761 10.61648098 -49.82820445 -0.08638351 0 0 Z " fill="#E31837" transform="translate(1911.875,215.8125)"/>
<path d="M0 0 C107.91 0 215.82 0 327 0 C325.20473521 7.18105915 323.41121175 14.25174834 321.25 21.3125 C320.99395996 22.15731934 320.73791992 23.00213867 320.47412109 23.87255859 C319.9297136 25.66723286 319.38395648 27.46149823 318.83691406 29.25537109 C318.00036434 31.99880516 317.16772016 34.74339846 316.3359375 37.48828125 C313.55067388 46.66972098 310.74199106 55.8437082 307.9128418 65.01171875 C304.95740724 74.58924554 302.04398423 84.17435775 299.24365234 93.79833984 C297.99622255 98.04509642 296.68251624 102.2697415 295.35546875 106.4921875 C295.01340393 107.58358032 295.01340393 107.58358032 294.66442871 108.69702148 C294.11024843 110.46487838 293.55521553 112.23246796 293 114 C286.04158539 113.85790762 279.08326183 113.71188948 272.125 113.5625 C271.09680145 113.54043488 270.06860291 113.51836975 269.00924683 113.49563599 C256.00136286 113.21327951 243.0043271 112.86140096 230.00488281 112.30712891 C222.66431978 112.0009597 215.34776012 111.87976393 208 112 C207.39052869 114.03157104 206.78106461 116.06314425 206.17163086 118.09472656 C205.63350122 119.88838208 205.09524944 121.68200095 204.55688477 123.47558594 C203.18225981 128.05580918 201.80927948 132.63650545 200.44140625 137.21875 C197.99732903 145.39965252 195.52557866 153.56896399 192.96459961 161.71411133 C188.81271843 174.94196862 184.79734149 188.21294644 180.90966797 201.52075195 C178.3135545 210.38294883 175.60062936 219.20985847 172.90283203 228.04150391 C172.02552833 230.91634605 171.15086731 233.79197598 170.27734375 236.66796875 C167.5077215 245.78529991 164.72566084 254.89848005 161.91552734 264.00341797 C159.17639803 272.87891674 156.45701833 281.75711247 153.85839844 290.67480469 C150.99607942 300.47694197 147.98306478 310.2341074 145 320 C143.72819441 324.16637073 142.45760686 328.33311116 141.1875 332.5 C140.89762207 333.44891113 140.60774414 334.39782227 140.30908203 335.37548828 C139.89891846 336.72102783 139.89891846 336.72102783 139.48046875 338.09375 C139.24223389 338.87427734 139.00399902 339.65480469 138.75854492 340.45898438 C137.81155861 343.63125138 136.9094913 346.81678046 136 350 C84.85 350 33.7 350 -19 350 C-17.8761819 341.0094552 -17.8761819 341.0094552 -16.58203125 337.14453125 C-16.30037109 336.28609619 -16.01871094 335.42766113 -15.72851562 334.54321289 C-15.42623047 333.64207764 -15.12394531 332.74094238 -14.8125 331.8125 C-12.39861269 324.43143236 -10.09753473 317.03977019 -8 309.5625 C-5.11141264 299.29914472 -2.01974429 289.10402086 1.10888672 278.91162109 C1.99638128 276.0118238 2.87643842 273.10987708 3.75390625 270.20703125 C6.61810161 260.73869621 9.53308972 251.2918618 12.5625 241.875 C15.10984507 233.94413418 17.47502825 225.97762288 19.73291016 217.95996094 C22.38509127 208.56616303 25.24513032 199.23828647 28.10888672 189.90722656 C29.58019566 185.10713153 31.03941988 180.30336798 32.5 175.5 C33.08332047 173.5846315 33.66665381 171.66926692 34.25 169.75390625 C35.42047974 165.90869741 36.58675597 162.06224741 37.75 158.21484375 C40.97409266 147.56518688 44.25549617 136.93878206 47.69140625 126.35522461 C48.10132813 125.08304077 48.10132813 125.08304077 48.51953125 123.78515625 C48.75776611 123.05176025 48.99600098 122.31836426 49.24145508 121.56274414 C50.27589887 118.06787561 51.13201665 114.53988689 52 111 C50.95585938 111.05534912 49.91171875 111.11069824 48.8359375 111.16772461 C30.68760812 112.12472403 12.54042109 113.06052677 -5.625 113.625 C-6.87667969 113.66488037 -8.12835937 113.70476074 -9.41796875 113.74584961 C-17.61527768 113.98515886 -25.79952734 114.04227855 -34 114 C-32.40851054 107.05178993 -30.49291722 100.30260743 -28.1875 93.5625 C-25.95740361 87.02601058 -23.93020608 80.46160841 -22.0625 73.8125 C-19.15725434 63.47245791 -16.05079394 53.2011246 -12.89990234 42.93359375 C-11.38619148 37.99904416 -9.8801895 33.06215422 -8.375 28.125 C-8.11017822 27.25955566 -7.84535645 26.39411133 -7.57250977 25.50244141 C-4.98480339 17.01906549 -2.50310329 8.5105512 0 0 Z " fill="#E31837" transform="translate(1382,221)"/>
<path d="M0 0 C-0.6373888 4.19004766 -2.95072975 7.43813524 -5.1875 10.9375 C-5.61659668 11.61683594 -6.04569336 12.29617188 -6.48779297 12.99609375 C-12.49258765 22.43852273 -18.75271062 31.717075 -25 41 C-28.46014108 39.63131556 -31.82525363 38.15671135 -35.1875 36.5625 C-46.43890078 31.42203522 -60.37511434 26.97954943 -72.5625 31.375 C-75.97808544 32.75337037 -75.97808544 32.75337037 -78 35 C-78.16681109 38.08347826 -78.16681109 38.08347826 -78 41 C-71.86373138 44.02026271 -65.76492439 45.12203401 -59.0625 46.3125 C-45.91403587 48.80002141 -32.949123 51.90716995 -22 60 C-21.13375 60.556875 -20.2675 61.11375 -19.375 61.6875 C-14.39023365 66.54108829 -10.14537445 73.31860586 -9.8671875 80.36328125 C-9.87105469 82.31814453 -9.87105469 82.31814453 -9.875 84.3125 C-9.87242187 85.60800781 -9.86984375 86.90351562 -9.8671875 88.23828125 C-9.98595168 91.60210196 -10.41218932 94.69465941 -11 98 C-10.57404541 97.29842773 -10.14809082 96.59685547 -9.70922852 95.87402344 C8.19970692 66.37695331 8.19970692 66.37695331 9.26449585 64.6231842 C9.96520085 63.46908125 10.66590479 62.31497766 11.36660767 61.16087341 C13.11579942 58.27984121 14.86501012 55.39882051 16.61425781 52.51782227 C20.5583341 46.02190674 24.50191749 39.52569243 28.44497681 33.02915955 C31.61119569 27.81274834 34.77893006 22.59725836 37.94677734 17.38183594 C39.32799257 15.10685457 40.70869176 12.83157134 42.08837891 10.55566406 C44.05773922 7.30722504 46.02873588 4.05978396 48 0.8125 C48.59385498 -0.16823486 49.18770996 -1.14896973 49.79956055 -2.15942383 C50.34008057 -3.04911865 50.88060059 -3.93881348 51.4375 -4.85546875 C52.14712891 -6.02565552 52.14712891 -6.02565552 52.87109375 -7.21948242 C54 -9 54 -9 55 -10 C57.37300869 -10.09494733 59.71678703 -10.12559319 62.09008789 -10.11352539 C62.83150528 -10.11367142 63.57292267 -10.11381744 64.33680725 -10.1139679 C66.79878621 -10.11326865 69.26069043 -10.10547574 71.72265625 -10.09765625 C73.42516539 -10.09579211 75.12767507 -10.09436819 76.83018494 -10.09336853 C81.31993073 -10.08954302 85.80964438 -10.07971247 90.29937744 -10.06866455 C94.87731491 -10.05845113 99.45525756 -10.05387106 104.03320312 -10.04882812 C113.02214957 -10.03809022 122.01107212 -10.02101341 131 -10 C135.28155631 3.6215423 135.28155631 3.6215423 136.640625 9.92578125 C136.90230469 11.11751953 137.16398437 12.30925781 137.43359375 13.53710938 C137.70300781 14.78298828 137.97242187 16.02886719 138.25 17.3125 C140.65643759 28.25631579 143.23904292 39.14042411 146 50 C148.97703368 61.72345299 151.72056214 73.47779147 154.34008789 85.28735352 C157.61119203 99.92805391 161.29526043 114.46401242 165 129 C166.90874717 127.09125283 166.87412048 123.83658564 167.34765625 121.28515625 C167.54578163 120.22772217 167.54578163 120.22772217 167.74790955 119.14892578 C168.18963629 116.78742783 168.62597828 114.42496516 169.0625 112.0625 C169.53436486 109.53282503 170.00759477 107.00340748 170.48080444 104.47398376 C170.81234917 102.70101042 171.14341402 100.92794727 171.47402954 99.15480042 C172.63269336 92.9439759 173.80830798 86.73656786 174.99609375 80.53125 C175.16107864 79.66923981 175.32606354 78.80722961 175.49604797 77.9190979 C175.82996551 76.1748394 176.1639143 74.43058688 176.49789429 72.68634033 C179.58708345 56.54324751 182.61238433 40.3893268 185.56640625 24.22094727 C187.65551274 12.80225655 189.82775227 1.40430061 192 -10 C214.77 -10 237.54 -10 261 -10 C260.34692107 -4.77536858 259.63638283 0.24853267 258.65234375 5.3984375 C258.52007889 6.09434998 258.38781403 6.79026245 258.25154114 7.50726318 C257.96541347 9.01077442 257.67812146 10.51406445 257.38977051 12.01715088 C256.92768255 14.4261819 256.46886761 16.83581795 256.01074219 19.24560547 C254.48337806 27.2719317 252.94391127 35.29591913 251.3999176 43.31906128 C250.68780909 47.02176638 249.97789515 50.72489097 249.26809692 54.42803955 C248.7657819 57.04284708 248.25982558 59.65693128 247.75366211 62.27099609 C247.43456553 63.93323607 247.11562937 65.59550686 246.796875 67.2578125 C246.65957474 67.96105652 246.52227448 68.66430054 246.3808136 69.38885498 C244.69450765 78.22935636 243.40578236 87.09671173 242 96 C260.81 96 279.62 96 299 96 C298.34 99.3 297.68 102.6 297 106 C296.43141136 108.97578187 295.86667009 111.95195232 295.30859375 114.9296875 C295.00068585 116.56511072 294.69274213 118.2005272 294.38476562 119.8359375 C293.90814302 122.37035538 293.43190011 124.90484337 292.95629883 127.43945312 C292.49143475 129.91556104 292.0251101 132.39139043 291.55859375 134.8671875 C291.34607216 136.00315872 291.34607216 136.00315872 291.1292572 137.16207886 C290.50458094 140.47301605 289.81762528 143.72949889 289 147 C225.31 147 161.62 147 96 147 C94 134 94 134 94 127 C76.84 127.33 59.68 127.66 42 128 C39.03 134.27 36.06 140.54 33 147 C8.91 147 -15.18 147 -40 147 C-33.09797297 134.34628378 -33.09797297 134.34628378 -29.125 128.3125 C-28.7228125 127.69439453 -28.320625 127.07628906 -27.90625 126.43945312 C-26.9411121 124.95727707 -25.9711214 123.47826257 -25 122 C-27.32744913 123.84909603 -29.64720559 125.69448732 -31.89453125 127.640625 C-51.52954846 144.11644393 -78.0230101 149.63758098 -103 149.4375 C-103.80815155 149.43445862 -104.6163031 149.43141724 -105.44894409 149.42828369 C-128.41613214 149.30092876 -150.9180147 145.44764501 -172 136 C-172.33 139.63 -172.66 143.26 -173 147 C-215.57 147 -258.14 147 -302 147 C-302 139.12562139 -302 139.12562139 -301.28491211 135.56982422 C-301.12704224 134.7673526 -300.96917236 133.96488098 -300.80651855 133.13809204 C-300.63189087 132.28556854 -300.45726318 131.43304504 -300.27734375 130.5546875 C-300.0063385 129.18949478 -300.0063385 129.18949478 -299.7298584 127.79672241 C-299.34092654 125.84099747 -298.94901771 123.88586262 -298.55441284 121.93127441 C-297.71558457 117.77559924 -296.89137928 113.61706524 -296.06642151 109.45861816 C-295.64627248 107.34120651 -295.22540155 105.22393798 -294.80381775 103.10681152 C-292.95850159 93.83164246 -291.18325661 84.54434604 -289.4375 75.25 C-289.15837331 73.76772416 -288.8791575 72.2854651 -288.59985352 70.80322266 C-288.17629103 68.55499728 -287.75282495 66.30675404 -287.32972717 64.05844116 C-285.6907901 55.35053219 -284.04084208 46.64472202 -282.38601685 37.93981934 C-282.05518948 36.19845628 -281.72481708 34.45700671 -281.39498901 32.7154541 C-278.69433374 18.45605069 -275.84648533 4.23242664 -273 -10 C-231.09 -10 -189.18 -10 -146 -10 C-147.19627783 -1.6260552 -148.40936691 6.60304888 -150.0625 14.875 C-150.41007042 16.62189666 -150.75516251 18.36928842 -151.09765625 20.1171875 C-151.24726807 20.86597168 -151.39687988 21.61475586 -151.55102539 22.38623047 C-152.15552809 25.90542892 -152.55710426 29.4568341 -153 33 C-172.47 33 -191.94 33 -212 33 C-212.66 36.96 -213.32 40.92 -214 45 C-214.33 45.99 -214.66 46.98 -215 48 C-197.51 48 -180.02 48 -162 48 C-165.50735294 70.21323529 -165.50735294 70.21323529 -167.125 78.625 C-167.29386719 79.5325 -167.46273438 80.44 -167.63671875 81.375 C-167.80042969 82.23351562 -167.96414063 83.09203125 -168.1328125 83.9765625 C-168.27605957 84.73018066 -168.41930664 85.48379883 -168.56689453 86.26025391 C-169 88 -169 88 -170 89 C-171.65738443 89.09346915 -173.31874644 89.11744977 -174.97875977 89.11352539 C-176.03978409 89.11344986 -177.10080841 89.11337433 -178.19398499 89.11329651 C-179.348134 89.10813522 -180.50228302 89.10297394 -181.69140625 89.09765625 C-182.86638168 89.0962413 -184.04135712 89.09482635 -185.25193787 89.09336853 C-189.02215064 89.08774992 -192.79230504 89.07519426 -196.5625 89.0625 C-199.11132727 89.0574874 -201.66015547 89.05292408 -204.20898438 89.04882812 C-210.47267633 89.03777444 -216.73633399 89.02101821 -223 89 C-223.06058594 89.74765625 -223.12117188 90.4953125 -223.18359375 91.265625 C-223.26738281 92.25046875 -223.35117188 93.2353125 -223.4375 94.25 C-223.55931641 95.71179688 -223.55931641 95.71179688 -223.68359375 97.203125 C-224 100 -224 100 -225 104 C-205.53 104 -186.06 104 -166 104 C-167 112 -168 120 -169 128 C-160.75 115.79 -152.5 103.58 -144 91 C-139.68883033 93.15558483 -135.54891483 95.54949281 -131.39648438 97.99023438 C-119.00058141 105.16823271 -106.23292545 107.24744753 -92 106 C-87.4656368 104.68315346 -84.67165385 103.00748077 -82 99 C-81.41666667 96.5 -81.41666667 96.5 -82 94 C-85.72282247 91.21819567 -89.04024454 90.43143659 -93.59375 89.7890625 C-95.511875 89.49902344 -95.511875 89.49902344 -97.46875 89.203125 C-100.1241198 88.81899869 -102.78070634 88.44458304 -105.4375 88.0703125 C-119.43174287 85.94318758 -135.32573342 81.65379808 -144.5 70 C-145.36408688 68.68638815 -146.20065921 67.35398542 -147 66 C-147.61875 64.96875 -148.2375 63.9375 -148.875 62.875 C-152.55173405 53.20981288 -150.06048067 42.08232125 -146 33 C-136.78660404 14.23715716 -119.12606847 1.58189589 -99.96337891 -5.78271484 C-96.03428677 -7.10940803 -92.03859263 -8.07407876 -88 -9 C-86.96359375 -9.28359375 -85.9271875 -9.5671875 -84.859375 -9.859375 C-57.03529082 -17.42181839 -25.41955242 -13.44776321 0 0 Z " fill="#015DAA" transform="translate(1947,628)"/>
<path d="M0 0 C227.7 0 455.4 0 690 0 C691.88200895 5.64602684 693.53282735 10.82008498 694.82421875 16.5546875 C695.05090996 17.55702927 695.05090996 17.55702927 695.28218079 18.57962036 C695.59602253 19.97217776 695.90763406 21.36523961 696.21704102 22.75878906 C696.69142835 24.89267045 697.17431463 27.02450523 697.65820312 29.15625 C700 39.58405582 700 39.58405582 700 43 C469 43 238 43 0 43 C0 28.81 0 14.62 0 0 Z " fill="#025EAA" transform="translate(155,618)"/>
<path d="M0 0 C236.61 0 473.22 0 717 0 C718.66123888 4.15309721 719.79532764 8.04766762 720.7265625 12.3828125 C720.87910492 13.07889618 721.03164734 13.77497986 721.18881226 14.49215698 C721.50849505 15.95574295 721.82605525 17.41979399 722.14160156 18.88427734 C722.62520421 21.1259466 723.11678604 23.36575898 723.609375 25.60546875 C723.91974533 27.03114678 724.22965712 28.45692474 724.5390625 29.8828125 C724.68590485 30.55160431 724.83274719 31.22039612 724.98403931 31.90945435 C725.57661441 34.67663501 726 37.15937713 726 40 C486.42 40 246.84 40 0 40 C0 26.8 0 13.6 0 0 Z " fill="#005DAA" transform="translate(155,735)"/>
<path d="M0 0 C232.32 0 464.64 0 704 0 C705.32 5.28 706.64 10.56 708 16 C708.73476562 18.86945312 708.73476562 18.86945312 709.484375 21.796875 C709.69707031 22.62960937 709.90976562 23.46234375 710.12890625 24.3203125 C710.55517558 25.98785668 710.98505507 27.65448091 711.41796875 29.3203125 C711.72927734 30.54621094 711.72927734 30.54621094 712.046875 31.796875 C712.23088867 32.51198242 712.41490234 33.22708984 712.60449219 33.96386719 C713 36 713 36 713 40 C477.71 40 242.42 40 0 40 C0 26.8 0 13.6 0 0 Z " fill="#005DAA" transform="translate(155,678)"/>
<path d="M0 0 C41.91 0 83.82 0 127 0 C125.73600637 10.11194903 124.40227745 19.97368794 122.4375 29.9375 C122.10588867 31.67676758 122.10588867 31.67676758 121.76757812 33.45117188 C120.13157685 41.86842315 120.13157685 41.86842315 119 43 C117.18944975 43.09376053 115.37522799 43.1174411 113.56225586 43.11352539 C112.40112778 43.11344986 111.23999969 43.11337433 110.04368591 43.11329651 C108.14840904 43.10555458 108.14840904 43.10555458 106.21484375 43.09765625 C104.92888809 43.0962413 103.64293243 43.09482635 102.31800842 43.09336853 C98.89356557 43.08954418 95.46916491 43.07971462 92.04473877 43.06866455 C88.55261811 43.05844864 85.06049066 43.05387053 81.56835938 43.04882812 C74.71222222 43.03809227 67.85611313 43.02101684 61 43 C60.93941406 43.58007812 60.87882812 44.16015625 60.81640625 44.7578125 C60.69072266 45.92957031 60.69072266 45.92957031 60.5625 47.125 C60.44068359 48.27355469 60.44068359 48.27355469 60.31640625 49.4453125 C59.96178358 52.30856218 59.4743119 55.15412857 59 58 C76.16 58 93.32 58 111 58 C110.35950403 63.76446374 109.66689947 69.21863469 108.58984375 74.87890625 C108.3487085 76.15580322 108.10757324 77.4327002 107.85913086 78.74829102 C107.55499268 80.33697998 107.25085449 81.92566895 106.9375 83.5625 C105.968125 88.656875 104.99875 93.75125 104 99 C86.51 99 69.02 99 51 99 C50.01 103.95 49.02 108.9 48 114 C67.8 114 87.6 114 108 114 C105.43709815 128.35225034 102.85923306 142.70383471 100 157 C57.43 157 14.86 157 -29 157 C-26.75186413 139.01491301 -26.75186413 139.01491301 -25.484375 132.90625 C-25.28023735 131.9066349 -25.28023735 131.9066349 -25.07197571 130.88682556 C-24.78433674 129.4804967 -24.49415526 128.07468549 -24.20144653 126.66940308 C-23.40584568 122.84618412 -22.63202513 119.01853046 -21.85546875 115.19140625 C-21.69739243 114.41467056 -21.5393161 113.63793488 -21.37644958 112.83766174 C-19.86415961 105.38450109 -18.45065536 97.91482655 -17.0625 90.4375 C-16.57435706 87.81117209 -16.08613332 85.18485951 -15.59765625 82.55859375 C-15.47252655 81.88545135 -15.34739685 81.21230896 -15.21847534 80.51876831 C-13.35583775 70.5168054 -11.43893794 60.52504148 -9.52810669 50.53219604 C-6.3088014 33.69604478 -3.15897281 16.84785498 0 0 Z " fill="#015DAA" transform="translate(2278,618)"/>
<path d="M0 0 C10.02402635 8.56819196 17.32206143 19.59558119 19.01953125 32.83203125 C20.15979582 53.82220759 14.81076295 73.81691637 0.8059082 89.88964844 C-15.06681999 107.3741156 -38.88113709 119.48442204 -62.57080078 121.07275391 C-85.53177571 121.98241396 -108.21684654 121.18126878 -126.48046875 105.39453125 C-137.21676525 94.97452499 -142.91159582 83.69847708 -143.32421875 68.65063477 C-143.58108534 46.50993904 -135.21673201 28.43853963 -119.74609375 12.53515625 C-89.00990292 -16.59391349 -35.46504408 -25.79698488 0 0 Z M-101.91015625 36.31640625 C-109.75053881 45.84321072 -114.76016021 56.70366904 -114.3203125 69.16015625 C-113.52473905 75.41500956 -111.32382797 80.11507809 -106.41796875 84.14453125 C-93.38749907 92.91269776 -76.11992225 93.55156225 -60.98046875 91.3359375 C-44.4019547 88.06094086 -28.51935078 80.36249376 -18.296875 66.55859375 C-12.84601175 58.15801148 -8.80040285 47.94688184 -9.98046875 37.83203125 C-11.30837564 31.79516224 -13.09029431 27.83308307 -17.98046875 23.83203125 C-18.48449219 23.40148437 -18.98851563 22.9709375 -19.5078125 22.52734375 C-42.68941738 4.09114975 -83.63877105 17.06268851 -101.91015625 36.31640625 Z " fill="#FEFDFD" transform="translate(2286.98046875,345.16796875)"/>
<path d="M0 0 C10.35711555 9.2616514 17.04124989 22.00881466 18.37109375 35.8671875 C19.02154924 56.9807629 11.18839279 76.47100228 -3.03125 92 C-19.09854885 108.66396247 -43.71763744 119.76674168 -66.86328125 120.265625 C-69.34635406 120.27088296 -71.82946987 120.26547863 -74.3125 120.25 C-75.54162109 120.25773438 -76.77074219 120.26546875 -78.03710938 120.2734375 C-97.27218414 120.23283576 -115.71761222 115.99631346 -130.34375 102.75 C-142.45472556 89.95349752 -144.42437877 76.31380301 -144.203125 59.45703125 C-143.72917269 42.40919791 -135.39359189 27.34643676 -124 15 C-123.39929688 14.30777344 -122.79859375 13.61554688 -122.1796875 12.90234375 C-93.39399885 -18.43791901 -34.01631722 -26.44561247 0 0 Z M-85 22 C-86.27617188 22.62841797 -86.27617188 22.62841797 -87.578125 23.26953125 C-99.70970712 29.88849194 -109.28527643 40.75915773 -113.875 53.8125 C-115.78361281 61.0698002 -116.5262891 69.4030591 -113.5 76.4375 C-108.76144258 84.28006019 -100.48678136 87.61538564 -92 90 C-71.83019594 94.29144767 -50.26210218 90.0724662 -33 79 C-23.18499067 71.77356456 -14.10000988 61.39380831 -12 49 C-11.29498431 40.84825612 -10.61875188 32.67083717 -16 26 C-24.0149791 17.13368892 -34.9690654 14.50975865 -46.5078125 13.77734375 C-60.16461326 13.44946649 -72.73597703 15.95459885 -85 22 Z " fill="#FEFDFD" transform="translate(853,346)"/>
<path d="M0 0 C5.71019384 4.64783219 9.95993423 10.00581209 11.0078125 17.46875 C11.49598509 27.75291929 7.56609196 36.26654415 0.94140625 43.96484375 C-7.84473935 52.62917104 -19.87125636 56.32070332 -32 56.6875 C-41.10633681 56.41552908 -49.64816603 53.63914246 -56.3125 47.1875 C-61.35152991 40.36637414 -62.08079801 33.44121581 -61.3125 25.1875 C-58.7109503 14.6559253 -52.028935 6.52212658 -43.03125 0.6953125 C-29.53901654 -6.78744916 -13.63601839 -7.46121761 0 0 Z " fill="#FCFDFE" transform="translate(1441.3125,671.8125)"/>
<path d="M0 0 C3.53075013 3.22216831 6.74785767 6.65867839 7.2734375 11.5390625 C7.51310829 18.8213673 6.90374221 23.48924116 2 29 C-4.71482534 36.1089564 -11.38126668 40.02048459 -21.19091797 40.57250977 C-28.36780759 40.7401941 -34.12060798 40.19187357 -40.10546875 35.828125 C-44.53626296 31.55263698 -46.16613741 27.22404854 -46.625 21.125 C-46.32612132 15.04468692 -43.88231177 10.60011494 -40 6 C-28.80966273 -4.073197 -13.54076515 -8.16706989 0 0 Z " fill="#FDF5F6" transform="translate(2412,536)"/>
<path d="M0 0 C3.53075013 3.22216831 6.74785767 6.65867839 7.2734375 11.5390625 C7.51310829 18.8213673 6.90374221 23.48924116 2 29 C-4.71482534 36.1089564 -11.38126668 40.02048459 -21.19091797 40.57250977 C-28.36780759 40.7401941 -34.12060798 40.19187357 -40.10546875 35.828125 C-44.53626296 31.55263698 -46.16613741 27.22404854 -46.625 21.125 C-46.32612132 15.04468692 -43.88231177 10.60011494 -40 6 C-28.80966273 -4.073197 -13.54076515 -8.16706989 0 0 Z M-35.5 9.5625 C-38.79321164 14.91396892 -39.71000359 18.71139682 -39 25 C-37.14840216 29.6289946 -34.27228067 31.5687021 -30 34 C-21.99643819 35.28946274 -14.07606453 34.8049685 -7.03125 30.6015625 C-2.66766979 27.16104734 -0.42598862 23.73630528 0.43359375 18.21484375 C0.6260333 13.88203801 0.45662221 10.87671465 -1.5625 7 C-7.36467534 2.23924075 -12.53983007 1.38742024 -19.92578125 1.58203125 C-26.16590446 2.43043428 -31.12715866 5.08033763 -35.5 9.5625 Z " fill="#E42240" transform="translate(2412,536)"/>
<path d="M0 0 C0.99 0 1.98 0 3 0 C3.05534912 0.92111572 3.11069824 1.84223145 3.16772461 2.79125977 C3.37795064 6.28591212 3.58861759 9.78053736 3.79956055 13.27514648 C3.88990004 14.7731831 3.98007553 16.27122962 4.07006836 17.76928711 C4.67572808 27.84895366 5.31852058 37.92515565 6 48 C-2.91 48 -11.82 48 -21 48 C-17.6249462 37.8748386 -17.6249462 37.8748386 -16.11474609 34.61352539 C-15.7778476 33.87989273 -15.4409491 33.14626007 -15.09384155 32.39039612 C-14.74060822 31.63379196 -14.38737488 30.87718781 -14.0234375 30.09765625 C-13.46736313 28.89199257 -13.46736313 28.89199257 -12.90005493 27.66197205 C-11.72946345 25.12673951 -10.5523225 22.59461261 -9.375 20.0625 C-8.57769672 18.33808858 -7.78081792 16.61348083 -6.984375 14.88867188 C-1.35606694 2.71213389 -1.35606694 2.71213389 0 0 Z " fill="#F9FBFD" transform="translate(2033,670)"/>
<path d="M0 0 C3.10398978 -0.08710289 6.20766548 -0.14042309 9.3125 -0.1875 C10.19357422 -0.21263672 11.07464844 -0.23777344 11.98242188 -0.26367188 C12.82998047 -0.27333984 13.67753906 -0.28300781 14.55078125 -0.29296875 C15.72120972 -0.31653442 15.72120972 -0.31653442 16.9152832 -0.34057617 C19.55304812 0.09035041 20.44086916 0.85646942 22 3 C21.86762016 6.1771162 21.61115138 8.22217098 19.625 10.75 C18.13150894 11.89883928 16.56777954 12.95481364 15 14 C16.32 16.97 17.64 19.94 19 23 C16.69 23 14.38 23 12 23 C11.32845067 21.71086513 10.66291141 20.41859796 10 19.125 C9.62875 18.40570312 9.2575 17.68640625 8.875 16.9453125 C8 15 8 15 8 13 C6.35 13 4.7 13 3 13 C2.93941406 13.63808594 2.87882812 14.27617188 2.81640625 14.93359375 C2.73261719 15.75988281 2.64882812 16.58617187 2.5625 17.4375 C2.48128906 18.26121094 2.40007813 19.08492187 2.31640625 19.93359375 C2 22 2 22 1 23 C-0.66617115 23.04063832 -2.33388095 23.042721 -4 23 C-4.23136637 17.4978184 -3.4350346 12.86146222 -2 7.5625 C-1.80921875 6.83095703 -1.6184375 6.09941406 -1.421875 5.34570312 C-0.95549597 3.56180334 -0.47881722 1.78060155 0 0 Z " fill="#E4213F" transform="translate(2384,543)"/>
<path d="M0 0 C3.63 0 7.26 0 11 0 C11 1.32 11 2.64 11 4 C8.47524538 5.26237731 6.68799534 5.09856404 3.875 5.0625 C2.96492188 5.05347656 2.05484375 5.04445313 1.1171875 5.03515625 C0.41851563 5.02355469 -0.28015625 5.01195312 -1 5 C-0.67 3.35 -0.34 1.7 0 0 Z " fill="#FBDFE3" transform="translate(2389,547)"/>
<path d="M0 0 C0.99 0.33 1.98 0.66 3 1 C3 8.26 3 15.52 3 23 C2.34 23 1.68 23 1 23 C0.67 15.41 0.34 7.82 0 0 Z " fill="#F5B1BC" transform="translate(1028,348)"/>
<path d="M0 0 C1.13732426 3.40401948 0.83989957 5.77456664 0.0625 9.25 C-0.13214844 10.14203125 -0.32679687 11.0340625 -0.52734375 11.953125 C-0.68332031 12.62859375 -0.83929687 13.3040625 -1 14 C-2.32 14.33 -3.64 14.66 -5 15 C-3.33333333 10 -1.66666667 5 0 0 Z " fill="#BAD3E8" transform="translate(1518,704)"/>
<path d="M0 0 C0.33 0 0.66 0 1 0 C0.67 2.97 0.34 5.94 0 9 C-1.32 8.01 -2.64 7.02 -4 6 C-2.69593116 3.98079663 -1.36176581 1.98075027 0 0 Z " fill="#C0D7EA" transform="translate(1149,631)"/>
</svg>
